<svg height="1024" node-id="1" sillyvg="true" template-height="1024" template-width="1024" version="1.1" viewBox="0 0 1024 1024" width="1024" xmlns="http://www.w3.org/2000/svg" xmlns:xlink="http://www.w3.org/1999/xlink"><defs node-id="95"><linearGradient gradientUnits="objectBoundingBox" id="SVGID_3_" node-id="38" spreadMethod="pad" x1="1098.3022" x2="1098.3022" y1="702.5673" y2="760.2749"><stop offset="0" stop-color="#ffcdd6"/><stop offset="0.3975" stop-color="#6d8daf"/><stop offset="1" stop-color="#253a59"/></linearGradient><clipPath id="SVGID_2_" node-id="9"><path d="M 980.70 510.00 L 980.50 524.90 L 979.80 539.80 L 978.60 554.50 L 977.00 569.10 L 974.90 583.70 L 972.30 598.20 L 969.30 612.60 L 965.90 626.90 L 962.00 641.00 L 957.70 655.00 L 953.00 668.80 L 947.80 682.50 L 942.20 696.00 L 936.20 709.30 L 929.70 722.50 L 922.90 735.40 L 915.70 748.10 L 908.00 760.60 L 900.00 772.90 L 891.50 785.00 L 882.70 796.70 L 873.50 808.20 L 863.90 819.50 L 853.90 830.50 L 843.50 841.20 L 832.80 851.60 L 821.80 861.60 L 810.50 871.20 L 799.00 880.40 L 787.30 889.20 L 775.20 897.70 L 762.90 905.70 L 750.40 913.40 L 737.70 920.60 L 724.80 927.40 L 711.60 933.90 L 698.30 939.90 L 684.80 945.50 L 671.10 950.70 L 657.30 955.40 L 643.30 959.70 L 629.20 963.60 L 614.90 967.00 L 600.50 970.00 L 586.00 972.60 L 571.40 974.70 L 556.80 976.30 L 542.10 977.50 L 527.20 978.20 L 512.30 978.40 L 497.40 978.20 L 482.50 977.50 L 467.80 976.30 L 453.20 974.70 L 438.60 972.60 L 424.10 970.00 L 409.70 967.00 L 395.40 963.60 L 381.30 959.70 L 367.30 955.40 L 353.50 950.70 L 339.80 945.50 L 326.30 939.90 L 313.00 933.90 L 299.80 927.40 L 286.90 920.60 L 274.20 913.40 L 261.70 905.70 L 249.40 897.70 L 237.30 889.20 L 225.60 880.40 L 214.10 871.20 L 202.80 861.60 L 191.80 851.60 L 181.10 841.20 L 170.70 830.50 L 160.70 819.50 L 151.10 808.20 L 141.90 796.70 L 133.10 785.00 L 124.60 772.90 L 116.60 760.60 L 108.90 748.10 L 101.70 735.40 L 94.90 722.50 L 88.40 709.30 L 82.40 696.00 L 76.80 682.50 L 71.60 668.80 L 66.90 655.00 L 62.60 641.00 L 58.70 626.90 L 55.30 612.60 L 52.30 598.20 L 49.70 583.70 L 47.60 569.10 L 46.00 554.50 L 44.80 539.80 L 44.10 524.90 L 43.90 510.00 L 44.10 495.10 L 44.80 480.20 L 46.00 465.50 L 47.60 450.90 L 49.70 436.30 L 52.30 421.80 L 55.30 407.40 L 58.70 393.10 L 62.60 379.00 L 66.90 365.00 L 71.60 351.20 L 76.80 337.50 L 82.40 324.00 L 88.40 310.70 L 94.90 297.50 L 101.70 284.60 L 108.90 271.90 L 116.60 259.40 L 124.60 247.10 L 133.10 235.00 L 141.90 223.30 L 151.10 211.80 L 160.70 200.50 L 170.70 189.50 L 181.10 178.80 L 191.80 168.40 L 202.80 158.40 L 214.10 148.80 L 225.60 139.60 L 237.30 130.80 L 249.40 122.30 L 261.70 114.30 L 274.20 106.60 L 286.90 99.40 L 299.80 92.60 L 313.00 86.10 L 326.30 80.10 L 339.80 74.50 L 353.50 69.30 L 367.30 64.60 L 381.30 60.30 L 395.40 56.40 L 409.70 53.00 L 424.10 50.00 L 438.60 47.40 L 453.20 45.30 L 467.80 43.70 L 482.50 42.50 L 497.40 41.80 L 512.30 41.60 L 527.20 41.80 L 542.10 42.50 L 556.80 43.70 L 571.40 45.30 L 586.00 47.40 L 600.50 50.00 L 614.90 53.00 L 629.20 56.40 L 643.30 60.30 L 657.30 64.60 L 671.10 69.30 L 684.80 74.50 L 698.30 80.10 L 711.60 86.10 L 724.80 92.60 L 737.70 99.40 L 750.40 106.60 L 762.90 114.30 L 775.20 122.30 L 787.30 130.80 L 799.00 139.60 L 810.50 148.80 L 821.80 158.40 L 832.80 168.40 L 843.50 178.80 L 853.90 189.50 L 863.90 200.50 L 873.50 211.80 L 882.70 223.30 L 891.50 235.00 L 900.00 247.10 L 908.00 259.40 L 915.70 271.90 L 922.90 284.60 L 929.70 297.50 L 936.20 310.70 L 942.20 324.00 L 947.80 337.50 L 953.00 351.20 L 957.70 365.00 L 962.00 379.00 L 965.90 393.10 L 969.30 407.40 L 972.30 421.80 L 974.90 436.30 L 977.00 450.90 L 978.60 465.50 L 979.80 480.20 L 980.50 495.10 L 980.70 510.00 Z" fill="#000000" fill-rule="nonzero" node-id="106" stroke="none" target-height="936.80005" target-width="936.8" target-x="43.9" target-y="41.6"/></clipPath></defs><path d="M 2.50 -2.10 L 2.50 1021.90 L 1026.50 1021.90 L 1026.50 -2.10 L 2.50 -2.10 Z M 513.00 976.90 L 495.70 976.60 L 478.60 975.70 L 461.80 974.10 L 445.20 972.00 L 428.80 969.40 L 412.40 966.10 L 396.30 962.20 L 380.50 957.90 L 364.90 953.00 L 349.60 947.60 L 334.40 941.60 L 319.50 935.20 L 304.90 928.30 L 290.60 920.80 L 276.60 913.00 L 262.80 904.60 L 249.40 895.80 L 236.40 886.50 L 223.60 876.90 L 211.20 866.70 L 199.10 856.20 L 187.50 845.30 L 176.20 834.00 L 165.30 822.40 L 154.80 810.30 L 144.60 797.90 L 135.00 785.10 L 125.70 772.10 L 116.90 758.70 L 108.50 744.90 L 100.70 730.90 L 93.20 716.60 L 86.30 702.00 L 79.90 687.10 L 73.90 671.90 L 68.50 656.60 L 63.60 641.00 L 59.30 625.20 L 55.40 609.10 L 52.10 592.70 L 49.50 576.30 L 47.40 559.70 L 45.80 542.90 L 44.90 525.80 L 44.60 508.50 L 44.90 491.20 L 45.80 474.10 L 47.40 457.30 L 49.50 440.70 L 52.10 424.30 L 55.40 407.90 L 59.30 391.80 L 63.60 376.00 L 68.50 360.40 L 73.90 345.10 L 79.90 329.90 L 86.30 315.00 L 93.20 300.40 L 100.70 286.10 L 108.50 272.10 L 116.90 258.30 L 125.70 244.90 L 135.00 231.90 L 144.60 219.10 L 154.80 206.70 L 165.30 194.60 L 176.20 183.00 L 187.50 171.70 L 199.10 160.80 L 211.20 150.30 L 223.60 140.10 L 236.40 130.50 L 249.40 121.20 L 262.80 112.40 L 276.60 104.00 L 290.60 96.20 L 304.90 88.70 L 319.50 81.80 L 334.40 75.40 L 349.60 69.40 L 364.90 64.00 L 380.50 59.10 L 396.30 54.80 L 412.40 50.90 L 428.80 47.60 L 445.20 45.00 L 461.80 42.90 L 478.60 41.30 L 495.70 40.40 L 513.00 40.10 L 530.30 40.40 L 547.40 41.30 L 564.20 42.90 L 580.80 45.00 L 597.20 47.60 L 613.60 50.90 L 629.70 54.80 L 645.50 59.10 L 661.10 64.00 L 676.40 69.40 L 691.60 75.40 L 706.50 81.80 L 721.10 88.70 L 735.40 96.20 L 749.40 104.00 L 763.20 112.40 L 776.60 121.20 L 789.60 130.50 L 802.40 140.10 L 814.80 150.30 L 826.90 160.80 L 838.50 171.70 L 849.80 183.00 L 860.70 194.60 L 871.20 206.70 L 881.40 219.10 L 891.00 231.90 L 900.30 244.90 L 909.10 258.30 L 917.50 272.10 L 925.30 286.10 L 932.80 300.40 L 939.70 315.00 L 946.10 329.90 L 952.10 345.10 L 957.50 360.40 L 962.40 376.00 L 966.70 391.80 L 970.60 407.90 L 973.90 424.30 L 976.50 440.70 L 978.60 457.30 L 980.20 474.10 L 981.10 491.20 L 981.40 508.50 L 981.10 525.80 L 980.20 542.90 L 978.60 559.70 L 976.50 576.30 L 973.90 592.70 L 970.60 609.10 L 966.70 625.20 L 962.40 641.00 L 957.50 656.60 L 952.10 671.90 L 946.10 687.10 L 939.70 702.00 L 932.80 716.60 L 925.30 730.90 L 917.50 744.90 L 909.10 758.70 L 900.30 772.10 L 891.00 785.10 L 881.40 797.90 L 871.20 810.30 L 860.70 822.40 L 849.80 834.00 L 838.50 845.30 L 826.90 856.20 L 814.80 866.70 L 802.40 876.90 L 789.60 886.50 L 776.60 895.80 L 763.20 904.60 L 749.40 913.00 L 735.40 920.80 L 721.10 928.30 L 706.50 935.20 L 691.60 941.60 L 676.40 947.60 L 661.10 953.00 L 645.50 957.90 L 629.70 962.20 L 613.60 966.10 L 597.20 969.40 L 580.80 972.00 L 564.20 974.10 L 547.40 975.70 L 530.30 976.60 L 513.00 976.90 Z" fill="#eeebe6" fill-rule="nonzero" node-id="110" stroke="none" target-height="1024" target-width="1024" target-x="2.5" target-y="-2.1"/><path d="M 980.40 512.00 L 980.20 526.90 L 979.50 541.80 L 978.30 556.50 L 976.70 571.10 L 974.60 585.70 L 972.00 600.20 L 969.00 614.60 L 965.60 628.90 L 961.70 643.00 L 957.40 657.00 L 952.70 670.80 L 947.50 684.50 L 941.90 698.00 L 935.90 711.30 L 929.40 724.50 L 922.60 737.40 L 915.40 750.10 L 907.70 762.60 L 899.70 774.90 L 891.20 787.00 L 882.40 798.70 L 873.20 810.20 L 863.60 821.50 L 853.60 832.50 L 843.20 843.20 L 832.50 853.60 L 821.50 863.60 L 810.20 873.20 L 798.70 882.40 L 787.00 891.20 L 774.90 899.70 L 762.60 907.70 L 750.10 915.40 L 737.40 922.60 L 724.50 929.40 L 711.30 935.90 L 698.00 941.90 L 684.50 947.50 L 670.80 952.70 L 657.00 957.40 L 643.00 961.70 L 628.90 965.60 L 614.60 969.00 L 600.20 972.00 L 585.70 974.60 L 571.10 976.70 L 556.50 978.30 L 541.80 979.50 L 526.90 980.20 L 512.00 980.40 L 497.10 980.20 L 482.20 979.50 L 467.50 978.30 L 452.90 976.70 L 438.30 974.60 L 423.80 972.00 L 409.40 969.00 L 395.10 965.60 L 381.00 961.70 L 367.00 957.40 L 353.20 952.70 L 339.50 947.50 L 326.00 941.90 L 312.70 935.90 L 299.50 929.40 L 286.60 922.60 L 273.90 915.40 L 261.40 907.70 L 249.10 899.70 L 237.00 891.20 L 225.30 882.40 L 213.80 873.20 L 202.50 863.60 L 191.50 853.60 L 180.80 843.20 L 170.40 832.50 L 160.40 821.50 L 150.80 810.20 L 141.60 798.70 L 132.80 787.00 L 124.30 774.90 L 116.30 762.60 L 108.60 750.10 L 101.40 737.40 L 94.60 724.50 L 88.10 711.30 L 82.10 698.00 L 76.50 684.50 L 71.30 670.80 L 66.60 657.00 L 62.30 643.00 L 58.40 628.90 L 55.00 614.60 L 52.00 600.20 L 49.40 585.70 L 47.30 571.10 L 45.70 556.50 L 44.50 541.80 L 43.80 526.90 L 43.60 512.00 L 43.80 497.10 L 44.50 482.20 L 45.70 467.50 L 47.30 452.90 L 49.40 438.30 L 52.00 423.80 L 55.00 409.40 L 58.40 395.10 L 62.30 381.00 L 66.60 367.00 L 71.30 353.20 L 76.50 339.50 L 82.10 326.00 L 88.10 312.70 L 94.60 299.50 L 101.40 286.60 L 108.60 273.90 L 116.30 261.40 L 124.30 249.10 L 132.80 237.00 L 141.60 225.30 L 150.80 213.80 L 160.40 202.50 L 170.40 191.50 L 180.80 180.80 L 191.50 170.40 L 202.50 160.40 L 213.80 150.80 L 225.30 141.60 L 237.00 132.80 L 249.10 124.30 L 261.40 116.30 L 273.90 108.60 L 286.60 101.40 L 299.50 94.60 L 312.70 88.10 L 326.00 82.10 L 339.50 76.50 L 353.20 71.30 L 367.00 66.60 L 381.00 62.30 L 395.10 58.40 L 409.40 55.00 L 423.80 52.00 L 438.30 49.40 L 452.90 47.30 L 467.50 45.70 L 482.20 44.50 L 497.10 43.80 L 512.00 43.60 L 526.90 43.80 L 541.80 44.50 L 556.50 45.70 L 571.10 47.30 L 585.70 49.40 L 600.20 52.00 L 614.60 55.00 L 628.90 58.40 L 643.00 62.30 L 657.00 66.60 L 670.80 71.30 L 684.50 76.50 L 698.00 82.10 L 711.30 88.10 L 724.50 94.60 L 737.40 101.40 L 750.10 108.60 L 762.60 116.30 L 774.90 124.30 L 787.00 132.80 L 798.70 141.60 L 810.20 150.80 L 821.50 160.40 L 832.50 170.40 L 843.20 180.80 L 853.60 191.50 L 863.60 202.50 L 873.20 213.80 L 882.40 225.30 L 891.20 237.00 L 899.70 249.10 L 907.70 261.40 L 915.40 273.90 L 922.60 286.60 L 929.40 299.50 L 935.90 312.70 L 941.90 326.00 L 947.50 339.50 L 952.70 353.20 L 957.40 367.00 L 961.70 381.00 L 965.60 395.10 L 969.00 409.40 L 972.00 423.80 L 974.60 438.30 L 976.70 452.90 L 978.30 467.50 L 979.50 482.20 L 980.20 497.10 L 980.40 512.00 Z" fill="none" node-id="112" stroke="none" target-height="936.80005" target-width="936.80005" target-x="43.6" target-y="43.6"/><g node-id="365"><g clip-path="url(#SVGID_2_)" group-id="1" id="sillyvg_g_1" node-id="116"><path d="M 728.30 717.20 L 726.80 717.20 L 726.70 709.40 L 728.20 709.40 Z" fill="#253a59" fill-opacity="0.5" fill-rule="nonzero" group-id="1,3,5,10,16,20" node-id="126" stroke="none" target-height="7.799988" target-width="1.5999756" target-x="726.7" target-y="709.4"/><path d="M 708.10 715.00 L 706.60 715.00 L 706.60 707.20 L 708.10 707.20 Z" fill="#253a59" fill-opacity="0.5" fill-rule="nonzero" group-id="1,3,5,10,16,21" node-id="131" stroke="none" target-height="7.799988" target-width="1.5" target-x="706.6" target-y="707.2"/><path d="M 688.00 713.30 L 686.50 713.30 L 686.50 705.50 L 688.00 705.50 Z" fill="#253a59" fill-opacity="0.5" fill-rule="nonzero" group-id="1,3,5,10,16,22" node-id="136" stroke="none" target-height="7.799988" target-width="1.5" target-x="686.5" target-y="705.5"/><path d="M 667.80 711.60 L 666.30 711.60 L 666.20 703.80 L 667.70 703.80 Z" fill="#253a59" fill-opacity="0.5" fill-rule="nonzero" group-id="1,3,5,10,16,23" node-id="141" stroke="none" target-height="7.799988" target-width="1.5999756" target-x="666.2" target-y="703.8"/><path d="M 647.60 709.80 L 646.10 709.80 L 646.10 702.00 L 647.60 702.00 Z" fill="#253a59" fill-opacity="0.5" fill-rule="nonzero" group-id="1,3,5,10,16,24" node-id="146" stroke="none" target-height="7.799988" target-width="1.5" target-x="646.1" target-y="702"/><path d="M 627.50 708.10 L 626.00 708.20 L 625.90 700.40 L 627.40 700.30 Z" fill="#253a59" fill-opacity="0.5" fill-rule="nonzero" group-id="1,3,5,10,16,25" node-id="151" stroke="none" target-height="7.9000244" target-width="1.5999756" target-x="625.9" target-y="700.3"/><path d="M 607.20 706.80 L 605.70 706.80 L 605.70 699.00 L 607.20 699.00 Z" fill="#253a59" fill-opacity="0.5" fill-rule="nonzero" group-id="1,3,5,10,16,26" node-id="156" stroke="none" target-height="7.799988" target-width="1.5" target-x="605.7" target-y="699"/><path d="M 587.10 705.50 L 585.60 705.50 L 585.60 697.70 L 587.10 697.70 Z" fill="#253a59" fill-opacity="0.5" fill-rule="nonzero" group-id="1,3,5,10,16,27" node-id="161" stroke="none" target-height="7.799988" target-width="1.5" target-x="585.6" target-y="697.7"/><path d="M 567.00 705.20 L 565.50 705.20 L 565.40 697.40 L 566.90 697.40 Z" fill="#253a59" fill-opacity="0.5" fill-rule="nonzero" group-id="1,3,5,10,16,28" node-id="166" stroke="none" target-height="7.799988" target-width="1.5999756" target-x="565.4" target-y="697.4"/><path d="M 546.70 704.30 L 545.20 704.30 L 545.20 696.50 L 546.70 696.50 Z" fill="#253a59" fill-opacity="0.5" fill-rule="nonzero" group-id="1,3,5,10,16,29" node-id="171" stroke="none" target-height="7.799988" target-width="1.5" target-x="545.2" target-y="696.5"/><path d="M 526.60 704.00 L 525.10 704.00 L 525.10 696.20 L 526.60 696.20 Z" fill="#253a59" fill-opacity="0.5" fill-rule="nonzero" group-id="1,3,5,10,16,30" node-id="176" stroke="none" target-height="7.799988" target-width="1.5" target-x="525.1" target-y="696.2"/><path d="M 506.50 704.10 L 505.00 704.10 L 505.00 696.30 L 506.50 696.30 Z" fill="#253a59" fill-opacity="0.5" fill-rule="nonzero" group-id="1,3,5,10,16,31" node-id="181" stroke="none" target-height="7.799988" target-width="1.5" target-x="505" target-y="696.3"/><path d="M 486.30 704.20 L 484.80 704.20 L 484.70 696.40 L 486.20 696.40 Z" fill="#253a59" fill-opacity="0.5" fill-rule="nonzero" group-id="1,3,5,10,16,32" node-id="186" stroke="none" target-height="7.799988" target-width="1.5999756" target-x="484.7" target-y="696.4"/><path d="M 466.10 704.70 L 464.60 704.70 L 464.60 696.90 L 466.10 696.90 Z" fill="#253a59" fill-opacity="0.5" fill-rule="nonzero" group-id="1,3,5,10,16,33" node-id="191" stroke="none" target-height="7.799988" target-width="1.5" target-x="464.6" target-y="696.9"/><path d="M 445.90 705.70 L 444.40 705.70 L 444.40 697.90 L 445.90 697.90 Z" fill="#253a59" fill-opacity="0.5" fill-rule="nonzero" group-id="1,3,5,10,16,34" node-id="196" stroke="none" target-height="7.799988" target-width="1.5" target-x="444.4" target-y="697.9"/><path d="M 425.80 706.20 L 424.30 706.20 L 424.30 698.40 L 425.80 698.40 Z" fill="#253a59" fill-opacity="0.5" fill-rule="nonzero" group-id="1,3,5,10,16,35" node-id="201" stroke="none" target-height="7.799988" target-width="1.5" target-x="424.3" target-y="698.4"/><path d="M 405.70 707.70 L 404.20 707.70 L 404.20 699.90 L 405.70 699.90 Z" fill="#253a59" fill-opacity="0.5" fill-rule="nonzero" group-id="1,3,5,10,16,36" node-id="206" stroke="none" target-height="7.799988" target-width="1.5" target-x="404.2" target-y="699.9"/><path d="M 385.50 709.10 L 384.00 709.20 L 383.90 701.40 L 385.40 701.30 Z" fill="#253a59" fill-opacity="0.5" fill-rule="nonzero" group-id="1,3,5,10,16,37" node-id="211" stroke="none" target-height="7.9000244" target-width="1.6000061" target-x="383.9" target-y="701.3"/><path d="M 365.40 711.10 L 363.90 711.10 L 363.80 703.30 L 365.30 703.30 Z" fill="#253a59" fill-opacity="0.5" fill-rule="nonzero" group-id="1,3,5,10,16,38" node-id="216" stroke="none" target-height="7.799988" target-width="1.6000061" target-x="363.8" target-y="703.3"/><path d="M 345.20 713.00 L 343.70 713.00 L 343.60 705.20 L 345.10 705.20 Z" fill="#253a59" fill-opacity="0.5" fill-rule="nonzero" group-id="1,3,5,10,16,39" node-id="221" stroke="none" target-height="7.799988" target-width="1.6000061" target-x="343.6" target-y="705.2"/><path d="M 325.10 714.90 L 323.60 714.90 L 323.50 707.10 L 325.00 707.10 Z" fill="#253a59" fill-opacity="0.5" fill-rule="nonzero" group-id="1,3,5,10,16,40" node-id="226" stroke="none" target-height="7.800049" target-width="1.6000061" target-x="323.5" target-y="707.1"/><path d="M 304.80 717.30 L 303.30 717.30 L 303.30 709.50 L 304.80 709.50 Z" fill="#253a59" fill-opacity="0.5" fill-rule="nonzero" group-id="1,3,5,10,16,41" node-id="231" stroke="none" target-height="7.799988" target-width="1.5" target-x="303.3" target-y="709.5"/><path d="M 555.50 750.80 L 555.20 746.90 L 554.40 743.20 L 553.20 739.80 L 551.50 736.50 L 549.50 733.50 L 547.10 730.80 L 544.40 728.40 L 541.40 726.40 L 538.10 724.70 L 534.60 723.50 L 530.90 722.80 L 527.00 722.50 L 523.10 722.80 L 519.40 723.60 L 516.00 724.80 L 512.70 726.50 L 509.70 728.50 L 507.00 730.90 L 504.60 733.60 L 502.60 736.60 L 500.90 739.90 L 499.70 743.40 L 499.00 747.10 L 498.70 751.20 L -592.80 743.40 L -418.30 740.10 L -139.00 734.20 L 1.80 730.60 L 121.20 727.00 L 167.80 725.20 L 196.20 723.70 L 222.50 722.00 L 272.60 717.80 L 367.50 708.70 L 416.30 704.90 L 441.60 703.50 L 468.70 702.40 L 496.50 701.80 L 526.80 701.70 L 558.10 702.20 L 592.70 703.50 L 641.20 706.20 L 668.20 708.20 L 724.30 713.20 L 811.70 722.50 L 906.30 731.70 L 945.60 735.10 L 1013.50 740.10 L 1066.10 742.90 L 1087.90 743.70 L 1120.90 744.10 L 1132.70 743.90 L 1150.80 743.00 L 1161.30 741.80 L 1167.30 740.20 L 1215.80 756.30 L 555.40 751.60 L 555.50 750.80 Z" fill="url(#SVGID_3_)" fill-rule="nonzero" group-id="1,3,5,10,17" node-id="237" stroke="none" target-height="54.599976" target-width="1808.6001" target-x="-592.8" target-y="701.7"/><path d="M 555.60 752.30 L 555.30 755.40 L 554.50 758.30 L 553.20 761.10 L 551.50 763.60 L 549.50 766.00 L 547.00 768.20 L 541.30 771.60 L 537.90 772.90 L 530.80 774.30 L 526.90 774.50 L 523.00 774.20 L 515.90 772.50 L 512.60 771.10 L 506.90 767.50 L 504.50 765.30 L 502.60 762.90 L 501.00 760.20 L 499.80 757.40 L 499.10 754.50 L 498.90 751.30 L -592.60 743.50 L -418.10 748.30 L -138.90 756.70 L 1.80 761.30 L 121.20 765.80 L 167.70 767.80 L 222.30 771.00 L 272.40 775.00 L 367.20 783.50 L 416.00 787.20 L 468.40 789.80 L 496.20 790.70 L 526.50 791.10 L 557.80 791.10 L 592.40 790.60 L 628.10 789.50 L 668.00 787.80 L 709.30 785.50 L 817.80 777.90 L 872.10 774.50 L 923.80 771.70 L 968.00 769.60 L 1009.70 768.10 L 1077.60 766.80 L 1129.40 767.00 L 1149.10 767.60 L 1180.40 769.20 L 1200.40 771.00 L 1214.10 773.10 L 1215.90 756.50 L 555.50 751.80 L 555.60 752.30 Z" fill="#253a59" fill-opacity="0.2" fill-rule="nonzero" group-id="1,3,5,10,17,42" node-id="241" stroke="none" target-height="47.599976" target-width="1808.5" target-x="-592.6" target-y="743.5"/><path d="M 82.90 728.10 L 86.10 725.60 L 89.40 724.30 L 91.30 724.30 L 95.90 725.80 L 102.80 726.90 L 110.70 726.80 L 121.80 725.70 L 128.40 726.20 L 145.00 724.50 L 164.80 723.30 L 169.20 721.80 L 173.10 721.80 L 179.50 722.30 L 183.90 721.90 L 186.70 721.50 L 194.90 719.20 L 205.80 718.20 L 250.30 718.20 L 256.80 717.90 L 258.50 717.00 L 259.10 717.10 L 262.10 719.10 L 261.70 719.80 L 260.30 720.10 L 255.20 720.30 L 235.10 722.90 L 228.50 723.20 L 221.60 723.20 L 213.70 722.60 L 207.70 723.80 L 201.60 723.40 L 180.20 724.60 L 129.60 728.90 L 98.60 730.80 L 92.30 730.90 L 85.10 730.50 L 82.90 729.70 L 82.20 728.60 L 82.90 728.10 Z" fill="#ffcdd6" fill-rule="nonzero" group-id="1,3,5,11" node-id="248" stroke="none" target-height="13.900024" target-width="179.90001" target-x="82.2" target-y="717"/><path d="M 279.10 716.10 L 283.40 715.20 L 287.20 713.30 L 289.20 712.80 L 291.30 712.70 L 296.00 714.00 L 298.50 714.30 L 311.10 713.40 L 317.70 712.30 L 319.50 712.60 L 323.70 712.00 L 327.10 711.30 L 329.40 710.20 L 332.10 709.90 L 340.50 710.20 L 348.60 709.10 L 361.10 706.40 L 369.10 705.10 L 380.80 703.90 L 397.80 703.00 L 422.10 702.40 L 445.10 701.20 L 454.60 702.20 L 455.80 702.60 L 455.90 702.80 L 455.60 703.00 L 453.40 703.40 L 443.80 704.00 L 428.70 706.70 L 415.50 708.20 L 408.50 708.40 L 400.50 708.10 L 394.60 709.50 L 388.50 709.30 L 379.10 709.70 L 367.00 709.30 L 299.80 716.40 L 274.80 718.50 L 271.10 718.50 L 269.90 718.10 L 273.10 717.20 L 279.10 716.10 Z" fill="#ffcdd6" fill-rule="nonzero" group-id="1,3,5,11" node-id="250" stroke="none" target-height="17.299988" target-width="186" target-x="269.9" target-y="701.2"/><path d="M 920.20 732.30 L 917.10 729.70 L 913.80 728.30 L 912.00 728.20 L 904.00 730.10 L 896.60 730.30 L 881.60 728.30 L 874.90 728.60 L 858.40 726.30 L 838.60 724.30 L 836.60 723.80 L 835.10 722.80 L 832.40 722.40 L 824.00 722.70 L 816.90 721.60 L 808.70 719.00 L 803.00 718.10 L 783.40 716.90 L 760.10 716.30 L 748.00 715.60 L 747.10 715.30 L 742.60 712.00 L 740.90 711.40 L 739.10 711.10 L 736.60 711.50 L 734.00 712.50 L 730.50 714.50 L 733.10 715.70 L 738.40 716.90 L 748.50 717.90 L 762.60 720.50 L 768.40 721.30 L 781.90 722.10 L 789.80 721.80 L 795.70 723.20 L 801.80 723.10 L 823.20 725.10 L 890.10 733.20 L 904.60 734.40 L 915.30 734.80 L 919.60 734.30 L 920.30 733.90 L 920.80 733.20 L 920.90 732.80 L 920.20 732.30 Z" fill="#ffcdd6" fill-rule="nonzero" group-id="1,3,5,11" node-id="252" stroke="none" target-height="23.700012" target-width="190.40002" target-x="730.5" target-y="711.1"/><path d="M 734.30 713.70 L 730.00 712.80 L 726.20 711.00 L 724.20 710.50 L 722.10 710.40 L 717.40 711.70 L 714.90 712.10 L 702.30 711.30 L 695.70 710.30 L 693.90 710.60 L 686.30 709.40 L 684.00 708.30 L 681.30 708.00 L 672.90 708.40 L 664.80 707.30 L 652.20 704.80 L 644.20 703.60 L 632.60 702.50 L 615.50 701.70 L 591.20 701.30 L 572.50 700.30 L 568.20 700.30 L 562.20 700.90 L 558.70 701.40 L 557.50 701.80 L 557.40 702.00 L 557.80 702.20 L 560.00 702.60 L 569.60 703.10 L 584.70 705.70 L 597.90 707.10 L 604.90 707.30 L 612.90 706.90 L 618.90 708.20 L 625.00 708.00 L 634.40 708.30 L 646.50 707.80 L 728.20 715.50 L 738.70 716.20 L 743.50 716.00 L 743.60 715.80 L 742.90 715.40 L 734.30 713.70 Z" fill="#ffcdd6" fill-rule="nonzero" group-id="1,3,5,11" node-id="254" stroke="none" target-height="15.900024" target-width="186.19995" target-x="557.4" target-y="700.3"/><path d="M 872.00 769.60 L 853.30 711.40 L 852.40 710.40 L 851.90 710.30 L 847.00 713.50 L 738.90 792.10 L 752.70 792.90 L 848.10 715.80 L 863.50 769.80 L 872.00 769.60 Z" fill="#253a59" fill-rule="nonzero" group-id="1,3,6,12" node-id="262" stroke="none" target-height="82.60004" target-width="133.09998" target-x="738.9" target-y="710.3"/><path d="M 872.00 769.90 L 853.20 816.40 L 852.10 816.90 L 738.90 792.20 L 752.70 793.00 L 850.60 813.20 L 863.50 769.90 L 872.00 769.90 Z" fill="#253a59" fill-opacity="0.2" fill-rule="nonzero" group-id="1,3,6,12,18" node-id="266" stroke="none" target-height="47" target-width="133.09998" target-x="738.9" target-y="769.9"/><path d="M 851.70 710.60 L 850.60 707.80 L 849.50 706.30 L 847.50 704.80 L 846.20 704.40 L 843.20 704.80 L 837.00 708.50 L 838.60 707.50 L 834.20 710.80 L 832.20 713.70 L 831.80 715.40 L 832.50 719.70 L 830.20 718.60 L 829.20 718.40 L 827.80 718.80 L 826.40 719.70 L 823.40 722.90 L 820.90 726.80 L 819.50 730.30 L 819.50 732.10 L 817.00 731.00 L 816.30 731.00 L 808.80 735.30 L 806.90 736.80 L 801.40 744.90 L 797.10 749.60 L 802.70 746.40 L 806.80 743.60 L 851.70 710.60 Z" fill="#ffcdd6" fill-rule="nonzero" group-id="1,3,6,12" node-id="269" stroke="none" target-height="45.19995" target-width="54.600037" target-x="797.1" target-y="704.4"/><path d="M 630.00 753.70 L 635.30 742.60 L 642.90 730.40 L 647.40 724.00 L 663.50 703.60 L 666.10 699.70 L 668.40 694.50 L 670.20 691.50 L 672.30 689.80 L 673.60 689.50 L 675.00 689.60 L 676.20 690.10 L 677.10 691.00 L 677.60 692.20 L 681.30 713.90 L 683.70 730.80 L 685.50 746.20 L 686.30 757.60 L 686.60 767.90 L 686.50 774.90 L 685.40 784.70 L 683.90 790.30 L 684.70 795.50 L 688.80 811.50 L 689.40 815.60 L 689.60 819.00 L 688.80 826.70 L 686.70 839.00 L 687.40 841.00 L 688.10 841.70 L 692.60 843.80 L 695.40 845.40 L 698.10 847.70 L 702.90 853.20 L 705.10 856.50 L 708.20 861.70 L 713.40 872.80 L 718.30 886.50 L 718.30 888.90 L 716.90 890.90 L 714.60 891.70 L 694.00 892.30 L 674.70 892.40 L 647.10 891.90 L 644.90 891.10 L 643.50 889.40 L 643.30 887.00 L 646.00 878.00 L 650.20 869.10 L 655.60 860.90 L 658.70 857.10 L 665.50 850.60 L 669.30 847.90 L 673.20 845.70 L 679.00 843.10 L 680.80 841.30 L 686.10 819.80 L 681.80 785.50 L 680.90 776.30 L 678.70 732.20 L 677.30 716.90 L 675.70 709.50 L 674.60 706.10 L 673.90 704.90 L 672.90 704.00 L 671.60 703.50 L 670.30 703.50 L 669.00 703.80 L 667.90 704.70 L 638.20 751.50 L 635.20 758.40 L 618.50 792.60 L 613.30 804.10 L 609.00 816.20 L 607.00 820.90 L 601.40 832.30 L 586.80 860.10 L 576.80 880.20 L 572.70 890.70 L 571.30 895.60 L 570.40 896.70 L 569.20 897.40 L 567.80 897.70 L 563.00 897.50 L 561.20 896.20 L 560.30 894.10 L 560.40 892.80 L 563.20 885.20 L 570.50 871.20 L 591.90 833.10 L 600.40 817.10 L 616.40 784.70 L 630.00 753.70 Z" fill="#253a59" fill-rule="nonzero" group-id="1,3,6,12" node-id="271" stroke="none" target-height="208.20001" target-width="158" target-x="560.3" target-y="689.5"/><path d="M 630.80 938.00 L 634.70 940.90 L 643.80 946.20 L 664.60 955.60 L 667.30 957.00 L 670.50 959.30 L 672.40 960.10 L 674.90 960.50 L 678.50 959.90 L 678.90 959.50 L 682.50 951.80 L 684.80 945.80 L 686.50 940.30 L 687.30 936.30 L 687.50 932.70 L 687.30 930.20 L 686.20 926.70 L 684.70 924.70 L 685.50 922.90 L 689.40 917.20 L 690.20 914.50 L 689.40 911.80 L 687.10 907.50 L 688.50 906.50 L 697.20 904.80 L 704.70 901.60 L 708.50 899.40 L 714.60 894.50 L 718.40 890.50 L 718.60 890.10 L 718.40 889.70 L 716.60 888.90 L 714.70 888.70 L 674.80 888.70 L 647.20 889.00 L 645.40 889.20 L 644.20 889.60 L 643.40 890.20 L 643.40 890.80 L 645.00 892.80 L 647.20 894.90 L 650.40 897.10 L 657.70 900.70 L 667.00 903.80 L 681.00 906.60 L 686.60 914.30 L 682.50 926.50 L 681.70 929.80 L 679.50 947.50 L 678.90 949.80 L 677.20 953.20 L 675.90 954.70 L 674.20 955.50 L 671.60 955.60 L 669.20 955.20 L 638.90 938.40 L 635.50 935.70 L 615.00 921.00 L 609.50 915.80 L 606.80 913.70 L 578.50 894.50 L 573.10 889.90 L 571.60 888.10 L 570.60 887.60 L 568.00 887.30 L 564.50 887.30 L 561.40 887.90 L 560.60 888.40 L 560.60 889.00 L 564.20 892.40 L 594.10 911.30 L 605.80 919.10 L 622.00 930.90 L 630.80 938.00 Z" fill="#253a59" fill-opacity="0.2" fill-rule="nonzero" group-id="1,3,6,12,19" node-id="275" stroke="none" target-height="73.20001" target-width="158" target-x="560.6" target-y="887.3"/><path d="M 659.70 699.30 L 663.90 695.40 L 668.50 691.80 L 669.60 691.60 L 669.20 693.20 L 660.80 708.10 L 632.90 755.10 L 596.00 832.90 L 570.20 871.90 L 584.40 838.50 L 588.40 828.70 L 592.30 817.10 L 595.20 809.50 L 599.10 801.40 L 603.50 794.20 L 605.90 791.20 L 609.70 787.90 L 611.40 786.00 L 616.10 778.70 L 619.10 773.30 L 624.60 761.90 L 633.50 740.30 L 640.30 727.40 L 652.00 708.60 L 656.80 702.00 L 658.80 699.80 L 659.70 699.30 Z" fill="#ffcdd6" fill-rule="nonzero" group-id="1,3,6,12" node-id="278" stroke="none" target-height="180.30005" target-width="99.39996" target-x="570.2" target-y="691.6"/><path d="M 718.50 880.30 L 721.90 879.40 L 723.00 878.60 L 724.10 877.30 L 724.70 875.00 L 724.50 871.70 L 722.60 866.80 L 721.60 865.20 L 720.00 864.20 L 718.50 864.20 L 718.20 862.20 L 714.20 858.60 L 713.30 855.80 L 714.50 850.60 L 714.50 849.30 L 714.20 847.90 L 713.50 846.70 L 712.20 845.40 L 707.90 843.10 L 699.20 841.00 L 698.90 840.30 L 699.20 837.50 L 699.00 837.00 L 698.60 836.80 L 695.30 837.70 L 693.70 837.60 L 690.00 836.40 L 687.80 837.10 L 683.50 836.00 L 680.80 836.70 L 673.80 836.40 L 671.30 836.60 L 669.10 837.40 L 667.90 838.30 L 666.90 839.60 L 665.80 842.30 L 662.50 842.30 L 660.90 842.90 L 659.20 844.00 L 656.90 846.20 L 654.50 849.20 L 651.20 854.20 L 645.60 859.00 L 644.10 860.90 L 642.80 863.70 L 641.90 868.40 L 641.70 875.50 L 640.90 884.60 L 641.10 886.30 L 641.90 887.50 L 643.40 887.00 L 645.00 885.50 L 649.40 878.70 L 650.50 877.60 L 652.30 876.80 L 655.10 877.00 L 656.70 876.60 L 658.30 875.80 L 660.60 874.20 L 666.90 867.90 L 668.50 866.80 L 670.50 865.90 L 674.80 865.20 L 678.90 865.40 L 680.50 865.90 L 684.70 869.70 L 685.90 870.40 L 687.20 870.60 L 690.90 869.60 L 692.80 869.40 L 694.60 869.70 L 696.20 870.30 L 700.80 874.30 L 702.50 875.20 L 706.30 874.60 L 711.00 875.00 L 718.50 880.30 Z" fill="#ffcdd6" fill-rule="nonzero" group-id="1,3,6,12" node-id="280" stroke="none" target-height="51.5" target-width="83.79999" target-x="640.9" target-y="836"/><path d="M 471.30 882.80 L 450.80 755.90 L 449.80 754.00 L 447.70 753.30 L 445.90 753.40 L 444.40 754.50 L 444.00 755.30 L 413.50 839.60 L 413.90 841.30 L 414.40 842.00 L 416.30 842.90 L 418.20 842.40 L 419.50 840.80 L 442.00 776.80 L 442.80 775.60 L 443.90 774.90 L 445.20 774.80 L 446.50 775.20 L 447.40 776.00 L 448.00 777.40 L 464.40 883.80 L 464.70 884.80 L 465.40 885.70 L 466.40 886.20 L 468.20 886.40 L 469.50 886.00 L 470.60 885.20 L 471.20 884.10 L 471.30 882.80 Z" fill="#253a59" fill-rule="nonzero" group-id="1,3,6" node-id="283" stroke="none" target-height="133.10004" target-width="57.799988" target-x="413.5" target-y="753.3"/><path d="M 471.30 887.10 L 451.50 915.70 L 450.50 916.10 L 447.60 916.30 L 446.40 915.70 L 444.80 913.70 L 413.60 840.30 L 414.40 840.20 L 415.40 841.10 L 417.30 841.30 L 418.10 841.80 L 420.90 845.70 L 446.20 907.40 L 448.40 911.00 L 464.40 887.00 L 465.40 886.60 L 469.60 886.40 L 470.60 886.60 L 471.30 887.10 Z" fill="#253a59" fill-opacity="0.2" fill-rule="nonzero" group-id="1,3,6,13" node-id="287" stroke="none" target-height="76.099976" target-width="57.69998" target-x="413.6" target-y="840.2"/><path d="M 438.00 755.90 L 438.80 753.60 L 440.10 751.60 L 441.90 750.10 L 443.90 749.00 L 445.40 748.60 L 448.60 748.80 L 450.30 749.60 L 450.90 751.00 L 450.40 754.90 L 449.10 757.90 L 448.00 758.80 L 445.20 759.60 L 443.70 760.80 L 442.30 762.30 L 440.30 765.70 L 440.00 766.90 L 440.00 773.20 L 439.50 774.80 L 437.30 777.70 L 434.70 783.20 L 427.80 804.80 L 423.00 818.20 L 421.50 821.60 L 419.70 824.30 L 417.40 827.50 L 415.10 829.40 L 414.00 829.10 L 413.50 828.20 L 412.70 824.90 L 412.50 822.30 L 412.90 820.80 L 413.60 819.80 L 416.70 818.30 L 419.20 816.20 L 419.70 815.30 L 420.30 811.30 L 421.40 807.60 L 422.20 805.90 L 425.00 802.30 L 426.00 800.30 L 427.10 795.70 L 427.30 792.90 L 427.20 790.90 L 426.30 787.30 L 426.60 785.20 L 429.10 782.40 L 431.00 780.90 L 433.70 779.30 L 434.10 778.50 L 433.00 773.90 L 430.80 768.10 L 430.90 765.60 L 431.50 764.20 L 432.80 762.50 L 436.50 760.00 L 437.20 759.10 L 438.00 755.90 Z" fill="#ffcdd6" fill-rule="nonzero" group-id="1,3,6" node-id="290" stroke="none" target-height="80.80005" target-width="38.399994" target-x="412.5" target-y="748.6"/><path d="M -10.00 503.00 L -10.50 493.50 L -8.30 492.10 L -4.90 490.90 L 0.10 490.90 L 2.60 490.50 L 4.70 488.60 L 7.20 488.00 L 7.20 486.00 L 8.00 484.20 L 9.00 483.80 L 12.30 483.50 L 13.50 483.00 L 14.50 482.00 L 15.30 480.10 L 16.10 480.00 L 17.80 480.60 L 20.50 478.80 L 24.10 479.10 L 24.50 478.80 L 25.10 476.60 L 25.60 475.90 L 26.50 475.60 L 31.90 475.80 L 32.60 475.50 L 33.40 474.40 L 34.30 473.90 L 36.20 473.70 L 38.10 474.00 L 39.80 474.80 L 43.10 477.60 L 44.40 477.80 L 45.60 477.60 L 46.90 476.60 L 47.30 473.80 L 47.80 473.00 L 50.20 471.30 L 51.70 468.80 L 55.20 468.10 L 59.60 468.60 L 62.80 466.20 L 63.80 465.90 L 65.90 466.10 L 69.40 467.70 L 71.80 468.00 L 77.20 467.00 L 80.50 465.40 L 82.00 465.10 L 86.20 465.00 L 96.40 462.40 L 100.80 462.10 L 103.00 459.40 L 104.10 458.60 L 117.10 453.90 L 122.10 448.30 L 124.80 445.80 L 131.30 441.20 L 132.90 440.30 L 134.40 440.20 L 134.60 440.60 L 127.80 450.50 L 119.40 460.40 L 111.70 468.30 L 107.10 470.90 L 101.40 472.70 L 98.40 473.10 L 93.90 473.20 L 81.00 476.20 L 61.40 482.50 L 50.50 487.00 L 40.70 490.40 L 15.00 498.20 L -2.40 502.50 L -8.50 503.40 L -10.00 503.00 Z" fill="#ffcdd6" fill-rule="nonzero" group-id="1,3,7,14" node-id="297" stroke="none" target-height="63.19998" target-width="145.1" target-x="-10.5" target-y="440.2"/><path d="M 152.20 456.00 L 160.40 451.70 L 162.50 449.30 L 165.60 446.90 L 167.40 446.30 L 168.50 446.30 L 170.90 447.50 L 171.90 448.90 L 170.90 448.30 L 169.50 446.60 L 169.40 445.60 L 169.80 444.70 L 171.60 443.80 L 175.80 443.10 L 181.10 440.00 L 181.80 440.20 L 183.10 441.10 L 186.80 445.80 L 188.80 446.10 L 190.70 445.60 L 191.20 445.10 L 192.60 441.30 L 193.40 440.10 L 194.50 439.40 L 196.50 439.50 L 199.90 441.00 L 201.70 441.30 L 203.60 441.10 L 206.40 440.40 L 216.30 436.40 L 219.50 436.30 L 220.60 435.90 L 224.10 432.90 L 235.90 419.40 L 238.10 417.60 L 240.30 416.40 L 241.10 415.60 L 242.60 412.30 L 245.00 404.00 L 247.20 399.10 L 249.40 397.00 L 250.70 396.40 L 253.20 396.00 L 254.50 396.10 L 255.50 396.60 L 255.90 398.00 L 255.50 399.40 L 239.00 426.50 L 226.90 444.80 L 215.10 453.60 L 152.20 456.00 Z" fill="#ffcdd6" fill-rule="nonzero" group-id="1,3,7,14" node-id="299" stroke="none" target-height="60" target-width="103.7" target-x="152.2" target-y="396"/><path d="M 136.40 431.30 L 135.10 430.20 L 134.60 429.30 L 134.40 428.00 L 135.30 426.20 L 138.20 423.20 L 145.10 414.80 L 148.60 411.80 L 150.30 411.20 L 151.80 411.30 L 153.50 411.90 L 160.20 416.10 L 161.60 416.70 L 162.50 416.80 L 170.40 411.90 L 171.80 411.30 L 163.90 417.70 L 163.80 418.30 L 163.40 418.80 L 155.70 424.10 L 148.50 430.90 L 138.40 431.80 L 136.40 431.30 Z" fill="#ffcdd6" fill-rule="nonzero" group-id="1,3,7,14" node-id="301" stroke="none" target-height="20.599976" target-width="37.40001" target-x="134.4" target-y="411.2"/><path d="M 120.10 247.50 L 119.80 244.60 L 120.30 240.50 L 122.10 237.10 L 125.00 234.70 L 129.20 233.30 L 132.30 233.00 L 141.20 233.10 L 146.50 233.80 L 148.00 234.40 L 154.20 239.80 L 157.40 241.60 L 160.80 242.90 L 172.40 245.60 L 178.00 247.30 L 180.60 249.00 L 182.60 251.90 L 184.50 253.10 L 196.20 254.30 L 198.80 255.10 L 201.30 256.40 L 204.20 259.00 L 205.40 260.80 L 208.70 268.20 L 212.10 278.20 L 213.30 280.90 L 214.80 283.20 L 216.60 284.90 L 218.70 285.50 L 220.00 285.30 L 229.70 281.60 L 232.50 281.10 L 235.30 281.10 L 237.20 281.50 L 239.00 282.30 L 241.00 283.70 L 242.70 285.40 L 249.30 295.50 L 250.80 297.00 L 253.30 298.70 L 256.00 299.70 L 258.80 300.30 L 267.00 300.90 L 272.70 301.70 L 277.70 297.00 L 280.00 295.80 L 283.80 295.10 L 286.60 295.30 L 288.00 295.80 L 294.60 301.00 L 297.50 302.50 L 300.80 303.70 L 311.70 305.90 L 316.50 307.10 L 327.10 311.00 L 332.40 312.30 L 335.20 312.20 L 338.00 311.60 L 341.80 310.20 L 346.50 307.90 L 356.40 302.10 L 359.00 301.00 L 360.90 300.70 L 362.10 300.90 L 363.30 301.60 L 364.40 302.80 L 365.30 304.30 L 366.00 307.40 L 365.50 312.00 L 363.50 316.90 L 351.20 317.40 L 347.10 317.20 L 340.20 316.30 L 301.00 313.30 L 281.00 311.20 L 255.60 310.10 L 251.20 309.70 L 241.40 306.70 L 237.50 304.60 L 214.30 286.60 L 199.50 273.50 L 194.60 269.70 L 191.00 267.30 L 163.50 256.40 L 159.10 255.30 L 124.00 248.60 L 120.10 247.50 Z" fill="#ffcdd6" fill-rule="nonzero" group-id="1,3,7,14" node-id="303" stroke="none" target-height="84.399994" target-width="246.2" target-x="119.8" target-y="233"/><path d="M 383.90 306.30 L 386.40 304.70 L 388.60 303.80 L 390.50 303.50 L 392.40 303.70 L 394.20 304.30 L 395.90 305.20 L 398.00 307.20 L 399.80 309.60 L 401.20 312.20 L 402.60 316.90 L 402.60 318.30 L 402.20 318.90 L 400.10 319.60 L 394.80 319.20 L 388.60 317.90 L 381.30 315.80 L 381.40 310.60 L 382.70 307.60 L 383.90 306.30 Z" fill="#ffcdd6" fill-rule="nonzero" group-id="1,3,7,14" node-id="305" stroke="none" target-height="16.100006" target-width="21.300018" target-x="381.3" target-y="303.5"/><path d="M 284.50 388.30 L 294.00 390.70 L 298.40 392.10 L 303.50 394.00 L 315.30 399.60 L 327.20 400.30 L 329.20 400.70 L 330.40 401.30 L 335.10 406.00 L 336.10 407.60 L 336.70 409.30 L 336.90 410.60 L 336.50 411.70 L 335.50 413.00 L 334.00 414.00 L 332.30 414.70 L 329.20 415.30 L 284.50 388.30 Z" fill="#ffcdd6" fill-rule="nonzero" group-id="1,3,7,14" node-id="307" stroke="none" target-height="27" target-width="52.399994" target-x="284.5" target-y="388.3"/><path d="M 253.00 442.10 L 254.40 438.80 L 256.30 436.60 L 257.60 435.90 L 259.20 435.70 L 262.60 436.10 L 264.60 436.70 L 266.20 437.60 L 268.50 439.90 L 269.40 440.20 L 272.00 440.00 L 274.50 440.90 L 282.70 447.20 L 285.00 448.70 L 287.40 449.60 L 290.80 449.90 L 294.50 448.60 L 296.50 447.10 L 300.00 443.80 L 301.40 442.90 L 309.50 441.10 L 313.10 439.30 L 319.10 437.60 L 326.10 436.80 L 332.70 436.70 L 337.80 437.40 L 341.80 439.50 L 344.20 440.30 L 346.60 440.40 L 348.90 440.10 L 351.00 439.20 L 353.30 437.70 L 355.80 435.50 L 362.50 428.50 L 364.80 426.90 L 369.40 425.00 L 374.00 424.40 L 377.30 424.70 L 379.10 425.10 L 380.50 425.90 L 382.50 428.50 L 383.40 429.10 L 384.90 429.60 L 390.40 429.20 L 401.00 426.70 L 407.90 424.00 L 415.90 419.60 L 417.80 419.00 L 421.90 418.40 L 423.70 417.70 L 427.80 414.50 L 436.00 405.90 L 439.00 404.30 L 442.50 403.50 L 445.40 403.30 L 447.70 403.70 L 450.00 404.50 L 451.70 405.60 L 453.00 407.00 L 453.90 408.70 L 454.40 410.50 L 454.40 412.40 L 454.00 414.30 L 453.00 416.20 L 451.50 418.10 L 449.70 419.70 L 447.20 421.10 L 443.90 422.30 L 358.60 445.50 L 334.00 450.60 L 305.20 455.90 L 292.40 457.70 L 283.10 458.40 L 271.40 457.50 L 261.50 455.60 L 252.20 452.90 L 253.00 442.10 Z" fill="#ffcdd6" fill-rule="nonzero" group-id="1,3,7,14" node-id="309" stroke="none" target-height="55.100006" target-width="202.2" target-x="252.2" target-y="403.3"/><path d="M 458.70 425.00 L 462.10 424.50 L 467.00 425.50 L 472.40 428.40 L 475.10 430.40 L 482.10 437.50 L 485.50 441.70 L 503.00 468.80 L 504.60 471.60 L 505.90 474.70 L 506.60 475.00 L 511.10 474.50 L 512.50 474.70 L 513.90 475.50 L 515.10 476.80 L 516.40 479.20 L 517.50 482.70 L 517.90 485.90 L 517.80 489.00 L 517.30 491.60 L 515.60 495.50 L 514.60 496.70 L 514.00 497.00 L 513.50 496.70 L 509.90 491.40 L 492.90 461.10 L 471.70 437.10 L 458.70 425.00 Z" fill="#ffcdd6" fill-rule="nonzero" group-id="1,3,7,14" node-id="311" stroke="none" target-height="72.5" target-width="59.200012" target-x="458.7" target-y="424.5"/><path d="M 269.80 479.10 L 275.50 479.50 L 278.10 480.10 L 281.00 481.00 L 283.00 482.10 L 284.60 483.70 L 286.00 485.60 L 288.70 491.10 L 289.90 492.90 L 290.30 492.80 L 290.40 492.00 L 290.30 488.60 L 290.60 487.70 L 291.40 487.20 L 293.80 488.40 L 298.40 492.40 L 299.30 492.70 L 308.20 492.30 L 312.40 493.40 L 314.10 494.50 L 315.70 496.40 L 316.70 498.10 L 318.20 502.70 L 318.90 503.80 L 320.70 504.50 L 324.60 504.70 L 327.70 506.00 L 329.30 507.50 L 331.10 509.80 L 333.90 515.10 L 335.00 516.50 L 336.90 517.80 L 338.60 518.40 L 340.20 518.40 L 345.70 517.30 L 347.90 517.10 L 350.10 517.40 L 352.90 518.30 L 364.60 523.70 L 369.20 525.30 L 371.90 525.80 L 374.20 525.80 L 380.50 524.20 L 383.70 523.90 L 386.50 524.90 L 391.60 528.00 L 393.60 529.40 L 395.20 531.40 L 395.20 532.10 L 394.70 532.90 L 393.70 533.70 L 389.30 536.30 L 385.50 538.10 L 376.70 539.60 L 345.40 523.60 L 301.00 498.60 L 284.30 489.90 L 270.50 483.50 L 269.80 479.10 Z" fill="#ffcdd6" fill-rule="nonzero" group-id="1,3,7,14" node-id="313" stroke="none" target-height="60.49997" target-width="125.400024" target-x="269.8" target-y="479.1"/><path d="M 450.70 597.10 L 454.80 600.30 L 455.60 600.30 L 464.00 596.10 L 467.20 595.50 L 471.20 595.70 L 473.10 596.20 L 475.20 597.80 L 475.50 599.80 L 474.40 602.20 L 465.80 611.90 L 459.90 619.90 L 456.30 617.60 L 437.30 586.80 L 441.90 589.30 L 445.50 591.90 L 447.10 593.40 L 449.50 597.00 L 450.00 597.30 L 450.70 597.10 Z" fill="#ffcdd6" fill-rule="nonzero" group-id="1,3,7,14" node-id="315" stroke="none" target-height="33.100037" target-width="38.200012" target-x="437.3" target-y="586.8"/><path d="M 227.80 105.20 L 230.00 100.00 L 231.70 96.90 L 236.50 90.10 L 241.90 85.10 L 247.20 82.20 L 250.10 81.20 L 253.20 80.70 L 256.60 80.50 L 260.00 80.90 L 263.70 81.90 L 276.90 87.20 L 280.20 88.00 L 286.30 88.40 L 291.80 87.30 L 300.60 83.30 L 302.20 83.10 L 306.60 83.30 L 309.10 82.90 L 316.70 81.00 L 320.70 80.90 L 324.00 82.40 L 325.40 83.60 L 328.70 88.10 L 331.20 93.00 L 332.40 96.20 L 332.90 99.00 L 332.90 100.50 L 332.40 101.70 L 331.20 102.50 L 317.60 97.20 L 287.50 92.60 L 265.10 92.80 L 257.60 97.30 L 249.10 106.70 L 243.90 110.10 L 227.80 105.20 Z" fill="#ffcdd6" fill-rule="nonzero" group-id="1,3,7,14" node-id="317" stroke="none" target-height="29.599998" target-width="105.09999" target-x="227.8" target-y="80.5"/><path d="M 287.70 166.20 L 293.10 168.80 L 295.30 170.30 L 297.60 172.30 L 299.10 174.20 L 300.80 177.10 L 303.40 183.50 L 304.40 186.70 L 305.10 190.80 L 304.70 191.90 L 303.80 191.90 L 302.30 191.30 L 300.80 190.20 L 297.50 186.10 L 287.70 166.20 Z" fill="#ffcdd6" fill-rule="nonzero" group-id="1,3,7,14" node-id="319" stroke="none" target-height="25.699997" target-width="17.399994" target-x="287.7" target-y="166.2"/><path d="M 61.60 513.00 L 65.00 510.80 L 69.10 509.00 L 75.00 507.50 L 78.10 507.10 L 81.30 507.20 L 84.40 507.70 L 96.00 511.30 L 102.60 512.30 L 107.80 512.40 L 110.70 512.10 L 113.40 511.40 L 120.10 508.50 L 121.80 508.10 L 123.70 508.70 L 125.10 510.80 L 125.30 513.40 L 124.90 515.40 L 124.10 517.30 L 121.30 521.70 L 118.90 523.40 L 116.90 524.40 L 114.70 525.10 L 112.00 525.50 L 108.10 525.00 L 92.80 519.80 L 86.40 518.30 L 71.10 516.30 L 62.00 514.60 L 61.60 513.00 Z" fill="#ffcdd6" fill-rule="nonzero" group-id="1,3,7,14" node-id="321" stroke="none" target-height="18.399994" target-width="63.700005" target-x="61.6" target-y="507.1"/><path d="M 129.10 534.30 L 135.20 534.70 L 140.70 535.40 L 146.10 536.80 L 148.40 537.80 L 149.90 538.90 L 151.90 541.20 L 156.90 548.50 L 158.60 550.50 L 160.50 551.80 L 161.50 552.10 L 162.80 551.80 L 165.40 547.70 L 166.70 547.00 L 167.70 547.10 L 169.50 548.00 L 170.90 549.20 L 174.40 553.20 L 175.90 553.90 L 181.30 554.20 L 183.40 554.60 L 185.40 555.50 L 189.80 558.50 L 192.30 559.30 L 198.10 559.90 L 212.10 559.80 L 227.60 565.10 L 234.60 568.50 L 238.80 571.70 L 240.20 574.50 L 240.30 578.50 L 239.30 580.20 L 238.10 580.50 L 228.30 578.20 L 216.80 573.50 L 191.90 567.10 L 162.00 558.10 L 129.20 537.50 L 128.60 536.50 L 129.10 534.30 Z" fill="#ffcdd6" fill-rule="nonzero" group-id="1,3,7,14" node-id="323" stroke="none" target-height="46.200012" target-width="111.7" target-x="128.6" target-y="534.3"/><path d="M 304.70 193.60 L 295.60 179.30 L 284.20 159.10 L 283.30 153.90 L 280.20 145.10 L 275.60 136.10 L 270.50 128.30 L 268.20 125.40 L 263.70 120.80 L 255.50 113.60 L 250.40 110.20 L 248.50 109.30 L 247.30 109.00 L 246.00 109.60 L 247.50 109.20 L 248.60 108.50 L 254.20 102.00 L 261.20 96.40 L 262.80 95.50 L 266.30 94.50 L 287.30 94.80 L 303.20 96.40 L 313.10 98.00 L 317.90 99.20 L 325.10 102.00 L 329.80 105.30 L 333.80 110.10 L 334.50 110.20 L 335.10 109.90 L 336.10 108.60 L 335.30 105.90 L 334.30 103.60 L 332.90 101.50 L 330.90 99.50 L 325.30 95.60 L 287.60 90.20 L 270.30 89.20 L 266.70 89.40 L 263.40 90.10 L 261.20 90.80 L 259.40 91.90 L 244.80 105.20 L 242.40 106.50 L 239.10 106.60 L 230.60 104.30 L 228.50 104.00 L 226.40 104.30 L 222.80 105.70 L 220.70 106.00 L 210.80 105.40 L 206.20 105.60 L 204.40 106.10 L 201.50 107.90 L 195.90 113.20 L 191.40 116.20 L 188.10 119.10 L 180.20 126.90 L 151.00 157.80 L 142.90 165.90 L 139.50 168.90 L 134.00 172.80 L 124.20 181.40 L 118.60 186.50 L 113.80 191.50 L 106.90 197.00 L 97.60 206.70 L 94.00 210.20 L 86.10 216.70 L 71.20 231.10 L 63.10 237.70 L 58.40 240.60 L 51.30 243.50 L 42.30 245.60 L 31.40 247.50 L 22.50 249.80 L 15.70 253.10 L 13.20 253.40 L 6.70 255.50 L -19.90 265.80 L -19.00 267.80 L -13.40 267.30 L 37.90 252.10 L 42.20 252.30 L 44.00 253.20 L 45.90 256.40 L 46.60 258.20 L 46.80 260.10 L 46.10 262.70 L 45.10 264.30 L 17.80 302.50 L 16.40 303.80 L 10.00 306.70 L 10.30 309.30 L 10.30 311.70 L 9.80 314.00 L 8.50 317.30 L 6.80 320.60 L 0.30 330.20 L -3.10 336.40 L -5.00 339.10 L -13.70 349.60 L -18.50 356.00 L -20.10 351.60 L -20.40 347.60 L -20.00 303.90 L -19.80 302.20 L -19.10 300.70 L -17.10 299.20 L -15.00 298.50 L -13.90 294.20 L -15.40 293.80 L -20.00 298.00 L -22.90 262.50 L -25.00 262.90 L -26.00 263.60 L -26.40 264.40 L -26.40 265.60 L -25.50 269.70 L -23.80 295.00 L -23.70 302.70 L -24.20 318.30 L -26.60 365.20 L -27.10 367.00 L -30.40 372.60 L -32.60 371.90 L -37.80 330.90 L -37.90 326.30 L -36.70 312.60 L -38.40 310.70 L -40.70 306.40 L -41.70 302.90 L -43.70 291.60 L -44.60 287.80 L -46.00 284.20 L -47.90 288.60 L -48.40 292.00 L -43.30 330.60 L -42.90 335.30 L -42.70 350.60 L -41.10 353.40 L -40.60 354.80 L -39.50 366.20 L -38.20 373.20 L -38.10 376.10 L -38.50 378.80 L -39.30 381.30 L -40.50 383.60 L -42.00 385.70 L -44.00 387.60 L -47.90 390.60 L -52.20 395.90 L -53.80 397.40 L -55.50 398.20 L -56.70 398.40 L -58.20 398.20 L -60.00 397.40 L -61.60 405.80 L -62.30 407.70 L -63.30 409.20 L -97.50 447.80 L -108.80 460.70 L -114.90 468.20 L -132.30 491.60 L -172.20 550.60 L -157.80 557.50 L -125.50 502.10 L -124.10 500.20 L -121.10 497.80 L -116.50 492.60 L -115.50 489.60 L -114.20 487.30 L -111.10 483.70 L -107.30 481.20 L -100.40 478.90 L -101.60 476.90 L -107.80 479.00 L -108.50 478.00 L -64.10 426.00 L -62.30 426.90 L -64.20 436.40 L -62.80 436.80 L -60.00 425.00 L -39.60 425.20 L -32.70 425.60 L -30.50 426.50 L -28.60 428.60 L -27.40 430.90 L -18.80 471.60 L -18.40 474.00 L -18.70 478.10 L -19.30 480.00 L -21.30 483.10 L -20.00 487.30 L -17.10 485.90 L -16.60 491.60 L -16.70 493.90 L -17.30 495.80 L -16.50 498.30 L -16.00 501.40 L -23.00 522.10 L -43.20 542.00 L -90.70 596.00 L -102.30 626.40 L -124.50 661.60 L -147.80 697.00 L -165.20 741.20 L -173.70 758.00 L -173.80 761.90 L -174.70 765.70 L -176.10 767.40 L -179.60 769.70 L -176.50 777.10 L -180.40 776.60 L -181.30 783.90 L -157.70 807.00 L -153.90 804.70 L -139.60 764.70 L -131.50 740.70 L -130.10 735.30 L -129.90 730.60 L -128.80 730.40 L -119.40 695.50 L -120.00 695.20 L -114.20 682.90 L -110.90 678.10 L -108.90 676.40 L -94.60 653.40 L -81.90 631.10 L -65.10 618.10 L -65.90 616.80 L -65.00 616.10 L -63.70 616.90 L -59.50 613.60 L -63.50 612.80 L -54.40 607.10 L -49.90 600.00 L -54.30 601.00 L -52.80 598.40 L -50.90 595.90 L -48.30 593.40 L -45.40 591.30 L -38.40 587.50 L -30.50 584.60 L -22.00 582.70 L -13.60 582.00 L -14.20 579.80 L -19.20 579.30 L -23.50 577.70 L -44.50 585.60 L -45.00 584.70 L -18.90 563.90 L -19.80 560.80 L -43.60 576.10 L -41.80 571.20 L -40.60 569.20 L -38.90 567.40 L -36.80 566.00 L -31.70 563.90 L -29.40 562.10 L -28.70 560.30 L -28.80 559.10 L -29.90 556.70 L -31.40 555.10 L -15.10 547.40 L -7.50 546.10 L -5.60 544.90 L -3.60 544.10 L -0.70 544.10 L 1.00 544.70 L 3.00 544.40 L 24.20 539.50 L 31.90 531.80 L 31.60 531.80 L 34.30 528.40 L 37.00 525.60 L 39.70 523.40 L 42.70 521.50 L 48.90 519.00 L 53.80 518.00 L 59.00 517.50 L 60.00 517.70 L 64.20 519.60 L 64.80 520.40 L 69.60 523.60 L 71.70 523.80 L 73.90 523.60 L 82.80 521.00 L 85.20 520.70 L 87.70 520.80 L 98.60 522.50 L 136.70 544.30 L 148.80 552.60 L 153.90 556.80 L 165.80 561.70 L 190.40 569.10 L 196.60 570.90 L 213.60 574.30 L 218.30 575.60 L 226.50 578.40 L 234.30 581.90 L 239.40 584.60 L 244.30 587.70 L 253.30 595.00 L 257.20 598.70 L 261.90 604.30 L 275.70 624.80 L 285.20 640.70 L 286.60 644.00 L 287.70 647.50 L 288.10 652.60 L 287.90 655.50 L 291.80 653.30 L 290.30 643.50 L 288.70 637.80 L 287.30 635.60 L 281.50 629.00 L 279.60 626.50 L 278.00 623.50 L 276.50 619.80 L 273.80 617.40 L 270.20 613.30 L 268.00 609.50 L 265.80 604.00 L 263.90 601.00 L 261.60 598.40 L 249.30 588.90 L 244.00 584.10 L 242.10 582.00 L 240.80 579.90 L 240.30 578.20 L 236.30 579.50 L 234.60 579.50 L 232.10 579.00 L 222.30 573.90 L 194.50 566.30 L 183.30 562.60 L 173.20 558.80 L 163.50 554.50 L 154.20 549.90 L 145.00 544.70 L 135.70 539.00 L 116.40 525.50 L 128.90 520.00 L 133.00 511.60 L 126.30 515.00 L 128.20 505.10 L 126.00 504.40 L 125.10 506.70 L 122.80 517.10 L 121.90 519.30 L 120.00 521.80 L 117.20 523.40 L 112.80 523.90 L 110.00 523.50 L 104.50 521.30 L 96.70 516.80 L 89.90 514.90 L 83.30 513.50 L 76.80 512.60 L 70.50 512.10 L 64.30 512.20 L 58.00 512.70 L 51.90 513.70 L 45.80 515.00 L 39.70 516.80 L 33.60 519.10 L 26.40 522.40 L 19.10 526.30 L 11.80 530.90 L 4.50 536.10 L 6.20 527.10 L -18.80 543.20 L -20.50 541.90 L -19.10 538.20 L -17.40 535.40 L -15.50 533.30 L -13.80 532.00 L -12.10 531.20 L -10.30 530.80 L -8.30 530.90 L -0.30 522.40 L 2.10 520.50 L 9.80 515.80 L 17.70 511.60 L 25.80 507.80 L 38.10 502.70 L 50.70 498.10 L 76.10 489.40 L 80.90 487.90 L 95.80 484.40 L 97.20 482.10 L 98.00 481.60 L 137.90 469.20 L 152.70 465.00 L 156.10 465.60 L 161.10 464.40 L 167.10 463.80 L 170.80 464.60 L 174.00 466.50 L 178.30 470.70 L 186.60 480.50 L 192.10 486.10 L 214.30 507.80 L 226.00 518.20 L 219.40 511.80 L 213.40 504.90 L 210.40 499.90 L 209.20 497.10 L 206.30 497.90 L 174.60 462.60 L 189.60 461.30 L 194.10 461.50 L 196.60 462.00 L 198.60 462.90 L 200.30 464.10 L 203.20 467.20 L 205.60 472.20 L 206.70 475.50 L 213.30 481.40 L 218.30 477.20 L 209.10 472.10 L 210.40 468.90 L 199.60 460.20 L 231.00 458.30 L 233.60 459.00 L 236.10 460.60 L 248.20 470.50 L 252.40 473.30 L 331.70 517.00 L 362.90 535.30 L 393.90 554.10 L 405.10 561.90 L 420.00 573.20 L 423.00 576.10 L 425.10 578.80 L 426.40 581.00 L 427.80 585.80 L 427.90 588.30 L 427.70 591.80 L 426.80 595.90 L 419.50 619.20 L 428.80 598.20 L 429.80 595.20 L 430.40 591.00 L 430.30 588.80 L 428.90 584.30 L 427.50 581.80 L 430.40 581.00 L 439.30 591.90 L 442.00 595.70 L 447.30 604.20 L 451.80 613.20 L 453.00 616.40 L 455.50 626.70 L 460.70 626.60 L 461.90 627.00 L 463.60 628.20 L 465.10 629.90 L 467.60 633.70 L 470.40 640.10 L 469.50 629.20 L 478.90 630.10 L 479.10 628.50 L 469.00 626.40 L 466.20 625.30 L 464.30 624.10 L 463.10 622.90 L 462.50 621.70 L 462.40 620.40 L 462.70 618.80 L 463.60 616.90 L 471.80 606.70 L 477.50 598.40 L 458.70 617.50 L 432.50 577.10 L 437.80 574.00 L 435.30 575.10 L 431.20 575.80 L 429.30 575.60 L 425.80 574.30 L 388.10 546.70 L 381.40 541.40 L 394.70 534.80 L 394.50 534.10 L 392.10 534.30 L 388.30 536.40 L 385.50 537.50 L 382.80 538.00 L 380.10 537.90 L 377.40 537.50 L 370.70 534.70 L 348.30 522.20 L 293.30 492.50 L 274.10 481.70 L 267.80 477.90 L 266.20 476.50 L 262.40 470.50 L 262.00 474.50 L 251.00 468.30 L 248.50 466.30 L 246.40 463.80 L 244.50 459.60 L 243.90 456.70 L 253.70 459.30 L 265.90 460.70 L 273.10 460.80 L 305.10 459.90 L 308.30 459.30 L 317.30 456.60 L 340.40 453.40 L 360.20 449.60 L 365.50 448.20 L 381.30 442.80 L 400.20 437.30 L 396.40 454.10 L 400.30 451.00 L 401.20 449.70 L 401.70 447.40 L 401.60 443.90 L 402.30 441.80 L 403.50 439.70 L 406.90 436.00 L 408.60 434.90 L 421.40 429.80 L 430.20 427.20 L 439.20 426.00 L 443.80 426.10 L 448.60 426.70 L 450.00 427.20 L 451.40 428.20 L 455.20 431.80 L 461.20 432.40 L 463.50 433.20 L 466.80 435.00 L 469.70 437.20 L 472.30 439.90 L 479.70 448.50 L 480.10 449.20 L 480.20 451.40 L 479.20 454.80 L 477.20 457.30 L 466.50 468.70 L 459.30 477.70 L 454.50 485.90 L 451.00 496.20 L 446.80 504.70 L 451.30 506.00 L 452.10 500.20 L 453.40 494.70 L 455.30 489.50 L 457.70 484.50 L 460.60 479.70 L 464.20 475.10 L 480.40 456.50 L 483.10 454.90 L 484.20 454.80 L 486.40 455.70 L 489.00 458.50 L 495.00 466.80 L 500.30 475.30 L 505.10 483.90 L 508.30 490.50 L 511.10 497.30 L 513.50 504.20 L 515.40 511.30 L 516.90 518.40 L 517.90 525.80 L 518.40 533.50 L 518.50 544.00 L 519.10 546.80 L 522.60 557.50 L 522.90 555.90 L 522.80 554.20 L 521.50 549.20 L 521.50 547.50 L 522.00 545.80 L 523.50 543.10 L 523.60 542.10 L 520.10 531.60 L 518.10 511.90 L 517.30 507.00 L 515.00 499.10 L 511.90 492.90 L 488.90 453.40 L 482.90 445.00 L 479.40 441.10 L 475.70 437.70 L 467.50 430.90 L 463.10 427.70 L 458.20 424.80 L 454.80 423.40 L 450.90 422.20 L 446.60 421.40 L 453.60 419.20 L 448.60 418.80 L 446.20 419.20 L 435.70 422.10 L 432.40 422.70 L 430.30 422.70 L 428.10 422.40 L 426.00 421.60 L 420.00 425.20 L 418.00 426.00 L 369.20 440.70 L 375.10 430.90 L 362.30 440.50 L 360.00 441.80 L 355.30 443.50 L 338.80 446.60 L 322.20 449.20 L 288.80 453.60 L 286.50 453.60 L 277.00 451.90 L 265.50 453.90 L 263.10 454.00 L 259.90 453.20 L 257.50 451.10 L 256.30 449.20 L 252.60 439.90 L 250.10 435.80 L 250.80 442.90 L 235.60 440.80 L 240.10 430.40 L 245.00 420.30 L 252.50 407.40 L 256.70 401.20 L 261.20 395.30 L 266.10 389.60 L 271.50 384.10 L 279.90 388.20 L 324.60 413.60 L 327.30 414.80 L 336.40 417.00 L 261.60 375.20 L 257.60 372.20 L 255.20 368.70 L 254.60 366.70 L 254.30 364.50 L 254.50 361.90 L 256.50 353.80 L 257.40 348.80 L 257.70 343.90 L 257.60 339.00 L 257.00 334.20 L 255.90 329.30 L 254.30 324.50 L 252.10 319.60 L 249.40 311.70 L 265.70 310.70 L 270.80 310.90 L 288.30 312.50 L 340.50 318.10 L 341.30 318.40 L 343.50 320.60 L 347.10 320.50 L 352.40 318.80 L 361.20 316.90 L 368.30 316.60 L 371.70 316.90 L 375.20 317.70 L 381.80 319.80 L 384.90 320.20 L 397.30 320.50 L 400.40 321.10 L 403.50 322.10 L 402.70 319.90 L 401.00 316.90 L 398.60 315.00 L 394.90 314.10 L 385.70 314.30 L 366.20 313.90 L 366.10 310.20 L 359.50 313.70 L 356.00 314.50 L 325.20 312.60 L 272.80 308.30 L 256.20 307.40 L 251.70 306.70 L 247.30 305.50 L 244.50 304.30 L 241.80 302.70 L 213.90 280.80 L 203.30 272.00 L 202.40 270.80 L 200.80 266.50 L 193.90 265.50 L 181.00 258.80 L 169.10 254.20 L 156.70 250.70 L 147.30 248.70 L 137.70 247.20 L 121.10 245.20 L 115.60 244.90 L 104.80 245.30 L 99.50 246.00 L 94.30 247.40 L 89.00 249.30 L 71.00 254.80 L 64.80 255.90 L 78.00 239.80 L 81.50 234.00 L 99.40 215.70 L 111.90 203.60 L 117.20 199.20 L 120.40 197.50 L 125.20 196.10 L 128.00 195.90 L 124.10 193.40 L 128.30 189.00 L 132.80 186.40 L 135.10 185.80 L 137.80 185.60 L 140.70 186.00 L 146.30 187.60 L 150.10 187.60 L 152.60 186.80 L 154.60 185.50 L 156.40 183.90 L 160.00 179.80 L 156.30 180.80 L 151.60 182.80 L 150.10 183.20 L 148.40 183.10 L 142.90 181.00 L 145.10 176.30 L 147.30 174.20 L 151.40 172.00 L 153.80 170.30 L 188.50 133.20 L 190.50 131.50 L 198.60 127.30 L 199.40 124.00 L 200.50 122.20 L 203.60 119.00 L 208.10 116.10 L 213.80 114.20 L 219.80 113.40 L 231.60 112.70 L 234.10 112.30 L 253.50 119.30 L 262.90 123.50 L 264.80 124.80 L 268.70 128.80 L 271.20 132.50 L 275.70 141.20 L 282.30 158.30 L 286.00 169.40 L 286.60 170.30 L 289.40 172.40 L 291.20 174.50 L 292.50 176.90 L 293.30 179.50 L 293.40 183.00 L 293.00 184.60 L 288.80 194.10 L 289.70 194.60 L 296.90 185.20 L 303.60 194.00 L 304.70 193.60 Z M -40.30 422.10 L -34.70 409.50 L -40.70 417.30 L -42.60 419.10 L -46.20 421.50 L -50.30 422.60 L -52.70 422.70 L -56.50 422.40 L -61.50 421.50 L -44.10 409.50 L -46.30 407.10 L -34.70 395.10 L -29.60 421.80 L -40.30 422.10 Z M -66.90 603.40 L -69.00 601.40 L -52.40 584.50 L -54.10 587.00 L -60.30 597.60 L -62.10 599.90 L -64.30 601.90 L -66.90 603.40 Z M 220.50 440.40 L 219.60 441.00 L 215.90 446.20 L 214.40 447.40 L 212.50 448.40 L 209.50 449.50 L 206.30 450.00 L 203.10 449.90 L 200.00 449.30 L 198.20 448.50 L 195.30 446.30 L 187.30 450.70 L 184.60 451.50 L 181.40 451.30 L 179.70 450.70 L 174.80 447.70 L 168.50 451.00 L 165.40 452.00 L 158.90 453.10 L 150.50 453.00 L 134.20 450.50 L 128.00 458.70 L 126.30 457.30 L 144.60 438.60 L 155.60 435.40 L 155.10 433.50 L 145.90 434.60 L 153.00 426.80 L 156.70 423.60 L 160.60 420.90 L 163.40 419.60 L 166.50 418.50 L 169.80 417.80 L 171.80 411.40 L 167.30 414.00 L 151.40 426.80 L 147.30 429.30 L 144.50 430.60 L 141.40 431.50 L 138.10 431.90 L 135.60 438.90 L 134.40 440.70 L 124.70 451.90 L 119.60 457.30 L 114.10 462.20 L 108.80 465.60 L 101.00 468.70 L 96.30 470.10 L 74.00 474.10 L 70.20 475.50 L 66.50 477.30 L 59.50 481.70 L 55.20 483.80 L 53.00 484.20 L 49.70 484.40 L 46.40 484.10 L 37.30 482.20 L 34.50 482.00 L 29.60 482.60 L 26.60 483.70 L 23.90 485.30 L 19.10 489.50 L 16.50 491.30 L 14.00 492.50 L 9.90 493.80 L 5.80 494.50 L -2.90 495.40 L -7.80 497.10 L -8.10 493.50 L -10.70 482.20 L -11.20 477.20 L -10.40 472.40 L -9.30 470.00 L -7.60 467.60 L -12.40 472.10 L -20.60 435.90 L -20.80 433.10 L -20.40 429.70 L -19.80 428.20 L -18.70 426.90 L -16.60 426.10 L -14.90 426.10 L 14.20 430.10 L 19.60 423.00 L 16.40 424.40 L 13.20 425.40 L 10.10 425.90 L 5.40 426.10 L -14.20 424.10 L -19.40 424.20 L -11.50 417.60 L -12.20 416.30 L -23.20 421.50 L -29.70 388.70 L -27.70 388.10 L -24.70 391.00 L -22.10 383.40 L -26.50 384.30 L -21.00 376.20 L -19.00 374.00 L -14.30 370.60 L -11.70 369.60 L -8.70 369.00 L -5.10 368.80 L -12.60 366.90 L -9.70 361.50 L 0.00 349.10 L 6.80 339.60 L 13.30 330.00 L 29.30 304.30 L 46.50 279.60 L 48.90 276.70 L 51.60 274.00 L 53.80 272.20 L 56.20 270.80 L 107.40 254.90 L 114.50 253.40 L 119.20 253.00 L 120.50 253.30 L 122.40 254.40 L 124.00 257.00 L 125.80 263.60 L 126.90 263.00 L 127.10 259.10 L 127.70 255.00 L 128.20 253.90 L 129.60 252.60 L 132.30 252.20 L 134.80 252.30 L 148.20 254.40 L 157.40 256.60 L 166.50 259.20 L 173.10 261.50 L 179.60 264.20 L 185.80 267.20 L 192.00 270.70 L 197.80 274.50 L 203.50 278.80 L 209.00 283.60 L 216.10 290.90 L 218.00 294.00 L 218.10 296.60 L 216.40 299.30 L 214.40 301.10 L 216.70 301.80 L 223.10 296.70 L 229.70 300.50 L 234.90 305.20 L 237.90 308.80 L 240.40 312.70 L 242.40 316.80 L 245.60 325.60 L 246.60 330.20 L 247.70 337.10 L 248.40 343.70 L 248.60 355.90 L 248.30 370.10 L 267.90 382.40 L 263.10 386.60 L 258.80 391.00 L 254.80 395.70 L 249.40 402.90 L 231.20 431.70 L 229.20 434.50 L 225.00 438.30 L 220.50 440.40 Z" fill="#253a59" fill-rule="nonzero" group-id="1,3,7,15" node-id="328" stroke="none" target-height="717.8" target-width="704.89996" target-x="-181.3" target-y="89.2"/></g></g><path d="M 980.70 510.00 L 980.50 524.90 L 979.80 539.80 L 978.60 554.50 L 977.00 569.10 L 974.90 583.70 L 972.30 598.20 L 969.30 612.60 L 965.90 626.90 L 962.00 641.00 L 957.70 655.00 L 953.00 668.80 L 947.80 682.50 L 942.20 696.00 L 936.20 709.30 L 929.70 722.50 L 922.90 735.40 L 915.70 748.10 L 908.00 760.60 L 900.00 772.90 L 891.50 785.00 L 882.70 796.70 L 873.50 808.20 L 863.90 819.50 L 853.90 830.50 L 843.50 841.20 L 832.80 851.60 L 821.80 861.60 L 810.50 871.20 L 799.00 880.40 L 787.30 889.20 L 775.20 897.70 L 762.90 905.70 L 750.40 913.40 L 737.70 920.60 L 724.80 927.40 L 711.60 933.90 L 698.30 939.90 L 684.80 945.50 L 671.10 950.70 L 657.30 955.40 L 643.30 959.70 L 629.20 963.60 L 614.90 967.00 L 600.50 970.00 L 586.00 972.60 L 571.40 974.70 L 556.80 976.30 L 542.10 977.50 L 527.20 978.20 L 512.30 978.40 L 497.40 978.20 L 482.50 977.50 L 467.80 976.30 L 453.20 974.70 L 438.60 972.60 L 424.10 970.00 L 409.70 967.00 L 395.40 963.60 L 381.30 959.70 L 367.30 955.40 L 353.50 950.70 L 339.80 945.50 L 326.30 939.90 L 313.00 933.90 L 299.80 927.40 L 286.90 920.60 L 274.20 913.40 L 261.70 905.70 L 249.40 897.70 L 237.30 889.20 L 225.60 880.40 L 214.10 871.20 L 202.80 861.60 L 191.80 851.60 L 181.10 841.20 L 170.70 830.50 L 160.70 819.50 L 151.10 808.20 L 141.90 796.70 L 133.10 785.00 L 124.60 772.90 L 116.60 760.60 L 108.90 748.10 L 101.70 735.40 L 94.90 722.50 L 88.40 709.30 L 82.40 696.00 L 76.80 682.50 L 71.60 668.80 L 66.90 655.00 L 62.60 641.00 L 58.70 626.90 L 55.30 612.60 L 52.30 598.20 L 49.70 583.70 L 47.60 569.10 L 46.00 554.50 L 44.80 539.80 L 44.10 524.90 L 43.90 510.00 L 44.10 495.10 L 44.80 480.20 L 46.00 465.50 L 47.60 450.90 L 49.70 436.30 L 52.30 421.80 L 55.30 407.40 L 58.70 393.10 L 62.60 379.00 L 66.90 365.00 L 71.60 351.20 L 76.80 337.50 L 82.40 324.00 L 88.40 310.70 L 94.90 297.50 L 101.70 284.60 L 108.90 271.90 L 116.60 259.40 L 124.60 247.10 L 133.10 235.00 L 141.90 223.30 L 151.10 211.80 L 160.70 200.50 L 170.70 189.50 L 181.10 178.80 L 191.80 168.40 L 202.80 158.40 L 214.10 148.80 L 225.60 139.60 L 237.30 130.80 L 249.40 122.30 L 261.70 114.30 L 274.20 106.60 L 286.90 99.40 L 299.80 92.60 L 313.00 86.10 L 326.30 80.10 L 339.80 74.50 L 353.50 69.30 L 367.30 64.60 L 381.30 60.30 L 395.40 56.40 L 409.70 53.00 L 424.10 50.00 L 438.60 47.40 L 453.20 45.30 L 467.80 43.70 L 482.50 42.50 L 497.40 41.80 L 512.30 41.60 L 527.20 41.80 L 542.10 42.50 L 556.80 43.70 L 571.40 45.30 L 586.00 47.40 L 600.50 50.00 L 614.90 53.00 L 629.20 56.40 L 643.30 60.30 L 657.30 64.60 L 671.10 69.30 L 684.80 74.50 L 698.30 80.10 L 711.60 86.10 L 724.80 92.60 L 737.70 99.40 L 750.40 106.60 L 762.90 114.30 L 775.20 122.30 L 787.30 130.80 L 799.00 139.60 L 810.50 148.80 L 821.80 158.40 L 832.80 168.40 L 843.50 178.80 L 853.90 189.50 L 863.90 200.50 L 873.50 211.80 L 882.70 223.30 L 891.50 235.00 L 900.00 247.10 L 908.00 259.40 L 915.70 271.90 L 922.90 284.60 L 929.70 297.50 L 936.20 310.70 L 942.20 324.00 L 947.80 337.50 L 953.00 351.20 L 957.70 365.00 L 962.00 379.00 L 965.90 393.10 L 969.30 407.40 L 972.30 421.80 L 974.90 436.30 L 977.00 450.90 L 978.60 465.50 L 979.80 480.20 L 980.50 495.10 L 980.70 510.00 Z" fill="none" node-id="334" stroke="none" target-height="936.80005" target-width="936.8" target-x="43.9" target-y="41.6"/><g node-id="366"><path d="M 980.70 510.00 L 980.50 524.90 L 979.80 539.80 L 978.60 554.50 L 977.00 569.10 L 974.90 583.70 L 972.30 598.20 L 969.30 612.60 L 965.90 626.90 L 962.00 641.00 L 957.70 655.00 L 953.00 668.80 L 947.80 682.50 L 942.20 696.00 L 936.20 709.30 L 929.70 722.50 L 922.90 735.40 L 915.70 748.10 L 908.00 760.60 L 900.00 772.90 L 891.50 785.00 L 882.70 796.70 L 873.50 808.20 L 863.90 819.50 L 853.90 830.50 L 843.50 841.20 L 832.80 851.60 L 821.80 861.60 L 810.50 871.20 L 799.00 880.40 L 787.30 889.20 L 775.20 897.70 L 762.90 905.70 L 750.40 913.40 L 737.70 920.60 L 724.80 927.40 L 711.60 933.90 L 698.30 939.90 L 684.80 945.50 L 671.10 950.70 L 657.30 955.40 L 643.30 959.70 L 629.20 963.60 L 614.90 967.00 L 600.50 970.00 L 586.00 972.60 L 571.40 974.70 L 556.80 976.30 L 542.10 977.50 L 527.20 978.20 L 512.30 978.40 L 497.40 978.20 L 482.50 977.50 L 467.80 976.30 L 453.20 974.70 L 438.60 972.60 L 424.10 970.00 L 409.70 967.00 L 395.40 963.60 L 381.30 959.70 L 367.30 955.40 L 353.50 950.70 L 339.80 945.50 L 326.30 939.90 L 313.00 933.90 L 299.80 927.40 L 286.90 920.60 L 274.20 913.40 L 261.70 905.70 L 249.40 897.70 L 237.30 889.20 L 225.60 880.40 L 214.10 871.20 L 202.80 861.60 L 191.80 851.60 L 181.10 841.20 L 170.70 830.50 L 160.70 819.50 L 151.10 808.20 L 141.90 796.70 L 133.10 785.00 L 124.60 772.90 L 116.60 760.60 L 108.90 748.10 L 101.70 735.40 L 94.90 722.50 L 88.40 709.30 L 82.40 696.00 L 76.80 682.50 L 71.60 668.80 L 66.90 655.00 L 62.60 641.00 L 58.70 626.90 L 55.30 612.60 L 52.30 598.20 L 49.70 583.70 L 47.60 569.10 L 46.00 554.50 L 44.80 539.80 L 44.10 524.90 L 43.90 510.00 L 44.10 495.10 L 44.80 480.20 L 46.00 465.50 L 47.60 450.90 L 49.70 436.30 L 52.30 421.80 L 55.30 407.40 L 58.70 393.10 L 62.60 379.00 L 66.90 365.00 L 71.60 351.20 L 76.80 337.50 L 82.40 324.00 L 88.40 310.70 L 94.90 297.50 L 101.70 284.60 L 108.90 271.90 L 116.60 259.40 L 124.60 247.10 L 133.10 235.00 L 141.90 223.30 L 151.10 211.80 L 160.70 200.50 L 170.70 189.50 L 181.10 178.80 L 191.80 168.40 L 202.80 158.40 L 214.10 148.80 L 225.60 139.60 L 237.30 130.80 L 249.40 122.30 L 261.70 114.30 L 274.20 106.60 L 286.90 99.40 L 299.80 92.60 L 313.00 86.10 L 326.30 80.10 L 339.80 74.50 L 353.50 69.30 L 367.30 64.60 L 381.30 60.30 L 395.40 56.40 L 409.70 53.00 L 424.10 50.00 L 438.60 47.40 L 453.20 45.30 L 467.80 43.70 L 482.50 42.50 L 497.40 41.80 L 512.30 41.60 L 527.20 41.80 L 542.10 42.50 L 556.80 43.70 L 571.40 45.30 L 586.00 47.40 L 600.50 50.00 L 614.90 53.00 L 629.20 56.40 L 643.30 60.30 L 657.30 64.60 L 671.10 69.30 L 684.80 74.50 L 698.30 80.10 L 711.60 86.10 L 724.80 92.60 L 737.70 99.40 L 750.40 106.60 L 762.90 114.30 L 775.20 122.30 L 787.30 130.80 L 799.00 139.60 L 810.50 148.80 L 821.80 158.40 L 832.80 168.40 L 843.50 178.80 L 853.90 189.50 L 863.90 200.50 L 873.50 211.80 L 882.70 223.30 L 891.50 235.00 L 900.00 247.10 L 908.00 259.40 L 915.70 271.90 L 922.90 284.60 L 929.70 297.50 L 936.20 310.70 L 942.20 324.00 L 947.80 337.50 L 953.00 351.20 L 957.70 365.00 L 962.00 379.00 L 965.90 393.10 L 969.30 407.40 L 972.30 421.80 L 974.90 436.30 L 977.00 450.90 L 978.60 465.50 L 979.80 480.20 L 980.50 495.10 L 980.70 510.00 Z" fill="none" group-id="2" node-id="338" stroke="none" target-height="936.80005" target-width="936.8" target-x="43.9" target-y="41.6"/><g node-id="368"><g node-id="372"><path d="M 752.30 368.60 L 751.10 368.70 L 750.00 369.50 L 749.30 370.70 L 748.90 372.30 L 750.60 373.40 L 751.70 373.20 L 752.80 372.50 L 753.50 371.30 L 753.70 369.70 L 752.30 368.60 Z" fill="#99000f" fill-rule="nonzero" group-id="2,4,8" node-id="344" stroke="none" target-height="4.799988" target-width="4.799988" target-x="748.9" target-y="368.6"/><path d="M 702.90 173.70 L 704.70 174.10 L 706.40 174.00 L 707.90 173.40 L 710.80 171.50 L 714.70 170.20 L 718.00 169.60 L 725.40 169.60 L 731.90 170.70 L 734.30 171.60 L 739.90 174.60 L 746.70 176.90 L 747.40 177.50 L 747.80 178.40 L 749.30 184.80 L 751.30 201.30 L 751.60 201.90 L 753.60 203.70 L 754.90 201.10 L 754.70 183.90 L 753.90 181.80 L 753.10 180.50 L 750.00 177.80 L 750.10 174.30 L 749.80 173.50 L 749.20 172.80 L 746.80 171.20 L 743.40 169.50 L 736.20 167.60 L 727.70 166.60 L 721.50 166.20 L 715.30 166.30 L 709.10 167.40 L 705.90 167.10 L 704.10 167.50 L 702.60 168.20 L 701.40 169.40 L 700.70 171.20 L 700.80 171.90 L 701.50 172.90 L 702.90 173.70 Z" fill="#99000f" fill-rule="nonzero" group-id="2,4,8" node-id="346" stroke="none" target-height="37.5" target-width="54.200012" target-x="700.7" target-y="166.2"/><path d="M 746.60 376.50 L 745.00 377.50 L 741.80 378.30 L 733.20 377.70 L 713.70 377.90 L 709.80 377.40 L 706.10 376.30 L 695.90 371.00 L 694.40 369.50 L 693.40 367.80 L 692.90 365.70 L 692.30 360.10 L 690.20 333.70 L 690.40 322.20 L 688.90 303.50 L 688.30 289.30 L 689.00 269.10 L 689.20 236.50 L 688.90 224.20 L 689.40 220.20 L 689.80 203.40 L 691.40 196.70 L 691.70 192.40 L 692.40 191.60 L 694.80 190.80 L 696.10 189.50 L 696.30 185.40 L 695.70 180.60 L 695.90 178.80 L 698.10 174.90 L 698.10 172.50 L 695.60 173.10 L 694.90 173.40 L 689.00 179.20 L 687.50 182.20 L 684.80 201.80 L 684.50 207.00 L 685.30 241.50 L 685.30 265.10 L 685.60 277.20 L 684.90 294.10 L 684.80 308.10 L 685.40 320.90 L 686.00 359.90 L 686.30 364.50 L 687.10 369.00 L 688.10 371.90 L 689.60 374.70 L 691.50 377.50 L 693.50 379.60 L 695.60 381.10 L 698.70 381.90 L 707.20 381.00 L 715.50 381.10 L 723.60 381.70 L 733.20 383.40 L 738.50 383.30 L 742.30 382.30 L 747.30 380.00 L 748.10 379.00 L 748.50 377.70 L 748.50 376.10 L 746.60 376.50 Z" fill="#99000f" fill-rule="nonzero" group-id="2,4,8" node-id="348" stroke="none" target-height="210.9" target-width="64" target-x="684.5" target-y="172.5"/><path d="M 754.30 209.00 L 752.90 206.50 L 751.90 206.70 L 751.20 210.60 L 750.90 228.10 L 750.70 229.10 L 749.70 230.00 L 750.60 234.00 L 753.70 234.80 L 754.50 234.00 L 754.80 232.80 L 755.30 218.90 L 754.30 209.00 Z" fill="#99000f" fill-rule="nonzero" group-id="2,4,8" node-id="350" stroke="none" target-height="28.300003" target-width="5.5999756" target-x="749.7" target-y="206.5"/><path d="M 757.40 346.00 L 756.60 308.40 L 755.70 301.10 L 756.10 294.50 L 754.80 291.50 L 754.90 290.30 L 756.30 289.00 L 756.90 286.90 L 755.10 274.90 L 754.90 271.40 L 754.90 261.20 L 755.70 247.40 L 754.80 240.80 L 753.80 239.40 L 752.20 240.40 L 751.30 242.40 L 751.00 248.00 L 751.90 257.30 L 751.20 260.80 L 751.00 266.60 L 751.60 283.70 L 750.20 291.70 L 750.20 297.70 L 750.30 300.20 L 751.20 303.90 L 752.10 331.70 L 752.40 350.80 L 752.00 364.20 L 752.50 365.90 L 754.20 365.80 L 755.90 363.40 L 756.80 361.20 L 757.60 351.10 L 757.40 346.00 Z" fill="#99000f" fill-rule="nonzero" group-id="2,4,8" node-id="352" stroke="none" target-height="126.5" target-width="7.3999634" target-x="750.2" target-y="239.4"/></g><g node-id="373"><path d="M 724.70 183.00 L 728.60 185.30 L 732.20 183.30 L 736.70 180.00 L 737.30 180.00 L 740.70 183.90 L 740.70 184.40 L 740.30 184.70 L 728.10 186.40 L 728.10 195.00 L 737.50 194.80 L 740.10 192.20 L 743.50 195.00 L 743.60 195.50 L 743.30 195.80 L 734.50 196.00 L 737.90 198.40 L 736.60 200.50 L 736.80 219.30 L 736.40 220.90 L 735.50 222.40 L 733.40 224.20 L 732.70 223.80 L 732.70 196.00 L 728.20 196.20 L 728.00 202.00 L 727.50 206.50 L 726.80 210.00 L 724.80 214.60 L 721.70 218.10 L 715.40 222.30 L 710.10 224.80 L 710.00 224.10 L 714.30 221.70 L 717.50 219.50 L 721.10 215.80 L 705.20 216.70 L 703.20 219.60 L 702.00 220.50 L 701.20 220.30 L 701.30 181.70 L 705.90 183.80 L 704.90 185.50 L 704.90 207.80 L 709.20 199.80 L 711.30 194.70 L 706.80 195.30 L 705.50 194.00 L 712.60 193.80 L 712.30 179.70 L 716.70 181.10 L 716.10 182.90 L 716.10 192.70 L 718.70 188.10 L 720.40 184.10 L 723.00 186.50 L 722.80 187.10 L 716.00 193.70 L 718.60 193.50 L 720.50 191.40 L 723.20 194.10 L 716.00 194.60 L 716.00 208.90 L 715.60 210.60 L 714.70 212.30 L 713.00 214.20 L 712.40 214.30 L 712.10 213.80 L 712.30 200.10 L 708.20 205.90 L 704.80 209.70 L 704.80 215.90 L 716.80 215.30 L 719.40 212.50 L 721.70 214.60 L 722.70 212.20 L 723.60 208.40 L 724.20 202.80 L 724.10 183.70 L 724.30 183.00 L 724.70 183.00 Z M 706.30 186.20 L 706.10 185.80 L 706.50 185.80 L 708.70 186.60 L 711.20 188.40 L 711.10 189.60 L 710.30 190.80 L 709.10 191.20 L 707.40 187.60 L 706.30 186.20 Z M 716.80 196.70 L 719.90 198.00 L 722.40 199.80 L 722.60 201.30 L 722.30 202.20 L 721.30 203.50 L 720.50 203.70 L 719.80 203.10 L 719.00 200.80 L 717.90 198.80 L 716.40 197.10 L 716.40 196.70 L 716.80 196.70 Z" fill="#99000f" fill-rule="nonzero" group-id="2,4,9" node-id="357" stroke="none" target-height="45.100006" target-width="42.399963" target-x="701.2" target-y="179.7"/><path d="M 708.00 227.10 L 712.10 229.20 L 712.20 229.50 L 711.50 231.10 L 711.30 238.00 L 713.70 238.00 L 715.80 235.90 L 718.40 238.30 L 718.40 238.60 L 718.00 238.70 L 711.20 238.90 L 711.20 243.80 L 715.30 245.90 L 716.10 246.80 L 716.10 247.70 L 715.70 248.60 L 714.80 249.40 L 713.70 249.60 L 712.40 246.20 L 711.20 244.50 L 711.40 266.40 L 709.90 269.70 L 708.60 271.30 L 707.90 271.60 L 707.30 270.90 L 707.70 249.50 L 701.40 257.70 L 697.40 262.10 L 696.70 262.10 L 703.00 251.30 L 705.50 245.60 L 707.70 239.60 L 707.70 239.00 L 701.10 239.40 L 699.80 238.10 L 707.70 237.90 L 707.50 227.20 L 708.00 227.10 Z M 721.10 249.10 L 726.50 250.60 L 725.60 252.50 L 725.60 256.10 L 725.10 259.30 L 724.20 262.20 L 722.70 264.80 L 720.70 267.20 L 718.20 269.50 L 715.00 271.50 L 711.00 273.30 L 710.70 273.30 L 710.50 272.90 L 714.30 270.40 L 716.80 268.20 L 718.50 266.10 L 719.60 264.10 L 720.40 261.90 L 720.90 258.80 L 721.20 254.70 L 721.10 249.10 Z M 732.90 227.90 L 736.50 232.40 L 727.30 233.40 L 730.90 235.10 L 727.50 240.60 L 736.90 240.40 L 739.30 238.00 L 742.50 240.60 L 742.10 241.20 L 726.70 241.60 L 724.60 244.60 L 721.90 247.70 L 718.50 250.90 L 714.30 254.20 L 713.70 254.20 L 718.80 248.50 L 722.70 241.80 L 716.90 242.20 L 715.40 240.90 L 723.10 240.70 L 725.70 233.80 L 718.30 234.80 L 717.90 234.30 L 725.90 231.30 L 732.90 227.90 Z M 729.90 249.10 L 735.30 251.20 L 734.30 252.70 L 734.30 267.70 L 732.70 270.80 L 730.50 272.60 L 729.80 272.20 L 730.00 249.10 Z M 730.50 241.60 L 731.60 243.10 L 733.30 244.60 L 735.70 246.20 L 743.80 249.50 L 743.70 249.80 L 740.40 251.30 L 738.50 252.90 L 735.70 250.70 L 733.30 248.20 L 731.50 245.20 L 730.10 241.80 L 730.50 241.60 Z" fill="#99000f" fill-rule="nonzero" group-id="2,4,9" node-id="359" stroke="none" target-height="46.19998" target-width="47.099976" target-x="696.7" target-y="227.1"/><path d="M 707.80 297.90 L 710.80 299.60 L 713.80 291.70 L 709.10 291.90 L 706.60 295.90 L 703.40 300.10 L 699.30 304.70 L 698.80 304.50 L 702.00 299.60 L 704.70 294.50 L 707.00 288.80 L 709.00 282.30 L 706.90 282.30 L 703.30 282.90 L 701.60 281.40 L 715.10 281.20 L 717.70 278.80 L 720.60 281.90 L 720.30 282.20 L 710.00 282.40 L 712.70 284.30 L 709.60 290.90 L 713.40 290.70 L 715.30 288.60 L 719.10 291.00 L 719.20 291.40 L 717.60 293.20 L 715.90 297.40 L 713.80 301.50 L 716.70 303.90 L 717.00 304.70 L 716.10 307.10 L 715.10 308.30 L 714.40 308.60 L 713.90 308.40 L 711.90 304.50 L 708.90 308.30 L 705.50 312.10 L 701.40 315.90 L 696.70 319.70 L 696.30 319.70 L 696.50 319.10 L 700.60 315.00 L 704.10 310.70 L 707.20 306.20 L 709.80 301.50 L 707.10 298.50 L 707.80 297.90 Z M 723.70 275.20 L 729.10 277.80 L 727.90 279.10 L 728.30 287.70 L 733.70 287.10 L 736.00 284.50 L 739.40 287.10 L 739.50 287.60 L 739.20 287.70 L 728.30 288.60 L 729.60 296.70 L 736.70 295.80 L 738.80 292.80 L 742.60 295.60 L 742.40 296.20 L 730.00 297.90 L 731.90 303.70 L 736.80 297.90 L 739.70 300.90 L 739.60 301.50 L 736.60 304.60 L 733.40 307.30 L 735.30 310.20 L 739.00 314.10 L 739.80 314.40 L 740.50 314.10 L 742.00 311.80 L 742.80 311.70 L 742.10 315.10 L 742.40 316.50 L 743.20 318.00 L 743.40 319.20 L 743.20 320.00 L 742.40 320.60 L 741.40 320.90 L 740.20 320.70 L 736.00 318.00 L 733.60 315.70 L 731.60 313.10 L 729.80 310.10 L 721.20 315.00 L 715.60 317.40 L 709.00 319.80 L 708.80 319.50 L 708.80 319.10 L 714.90 316.40 L 720.10 313.50 L 724.60 310.40 L 728.50 307.10 L 725.90 298.30 L 719.10 299.60 L 717.40 298.30 L 725.70 297.20 L 724.60 289.10 L 719.70 289.90 L 718.00 288.60 L 724.60 288.00 L 723.70 275.20 Z M 731.80 278.10 L 735.60 279.50 L 736.70 280.90 L 736.50 281.80 L 735.90 282.60 L 734.80 283.30 L 733.70 283.30 L 733.20 280.80 L 732.50 279.30 L 731.60 278.20 L 731.80 278.10 Z" fill="#99000f" fill-rule="nonzero" group-id="2,4,9" node-id="361" stroke="none" target-height="45.69998" target-width="47.100037" target-x="696.3" target-y="275.2"/><path d="M 707.80 327.40 L 707.20 326.80 L 707.60 326.40 L 728.40 325.80 L 730.80 323.20 L 733.80 326.00 L 733.90 326.50 L 722.20 327.00 L 722.20 331.30 L 735.30 330.90 L 737.60 329.20 L 742.30 334.30 L 742.50 335.10 L 742.20 335.30 L 739.60 335.50 L 734.90 337.20 L 734.50 337.10 L 734.50 336.80 L 735.40 332.10 L 722.10 332.50 L 722.30 340.00 L 722.00 341.50 L 721.20 343.10 L 719.50 344.90 L 718.80 345.10 L 718.40 344.50 L 718.40 332.70 L 706.40 332.90 L 705.50 335.40 L 704.40 337.40 L 703.00 339.00 L 701.30 340.20 L 700.80 340.30 L 700.40 339.80 L 700.00 338.30 L 700.10 337.30 L 702.10 335.00 L 703.00 333.00 L 703.60 330.00 L 704.40 330.20 L 706.30 331.90 L 718.50 331.50 L 718.50 327.00 L 707.80 327.40 Z M 714.20 355.70 L 709.10 356.10 L 707.80 354.60 L 730.70 354.40 L 730.70 348.40 L 730.30 347.30 L 732.60 344.30 L 737.10 347.10 L 737.10 347.90 L 735.80 349.80 L 735.70 362.30 L 735.20 364.30 L 734.30 366.20 L 732.30 368.40 L 731.70 368.00 L 729.40 363.70 L 709.10 363.90 L 704.20 364.50 L 702.70 363.20 L 730.60 363.00 L 730.60 355.50 L 714.20 355.70 Z M 710.20 348.60 L 705.30 349.20 L 703.80 347.70 L 728.60 347.30 L 728.60 348.20 L 710.20 348.60 Z M 716.00 341.10 L 716.60 341.70 L 716.00 342.30 L 707.00 342.70 L 706.50 342.70 L 706.20 342.30 L 706.80 341.50 L 716.00 341.10 Z M 715.10 336.20 L 715.70 336.80 L 715.10 337.40 L 708.30 337.80 L 707.90 337.70 L 707.70 337.20 L 707.90 336.80 L 708.30 336.60 L 715.10 336.20 Z M 733.30 340.70 L 733.80 340.90 L 733.90 341.30 L 733.30 341.90 L 724.90 342.30 L 724.10 341.90 L 724.70 341.10 L 733.30 340.70 Z M 731.80 335.80 L 732.20 336.40 L 731.80 336.90 L 725.00 337.10 L 724.60 336.50 L 725.00 336.10 L 731.80 335.80 Z" fill="#99000f" fill-rule="nonzero" group-id="2,4,9" node-id="363" stroke="none" target-height="45.19998" target-width="42.5" target-x="700" target-y="323.2"/></g></g></g></svg>